
									<svg xmlns="http://www.w3.org/2000/svg" xmlns:xlink="http://www.w3.org/1999/xlink" viewBox="0 0 500 500"><defs><clipPath id="clip-path"><path d="M31.28,278.49,70.8,221.56l23.23-7,5.17-17.88a31.56,31.56,0,0,1,16.2-19.45h0L125,148l29.42-7,33.91-68.8,22.45-.77,20.9-10.06,18.58-7.75,20.13,23.23L289,121l27.25,19.25L344.09,196h0a116.2,116.2,0,0,1,58.07,46.81L428,283.51,169.9,297.43Z" style="fill:#fff;stroke:#23A463;stroke-linecap:round;stroke-linejoin:round"></path></clipPath></defs><g id="background-simple"><path d="M474.16,241.29c0,1,0,1.93,0,2.88,0,.41,0,.83,0,1.24,0,.67,0,1.35-.05,2,0,.4,0,.81-.05,1.21,0,1-.08,2-.15,3s-.13,2.11-.21,3.15c-.05.63-.1,1.26-.17,1.89s-.1,1.28-.17,1.91c-.1,1-.21,2.07-.34,3.09-.07.71-.16,1.44-.26,2.16,0,.38-.09.75-.15,1.13a4,4,0,0,1-.09.59,180.07,180.07,0,0,1-28.91,75.19c-127.82,104-254,110.56-378.48,11.85-24.71-31.67-39.16-70-39.16-111.3,0-38.53,31.58-145,205.77-208.53,60-21.85,179.79,73.94,224.82,154.11C467.6,206.63,474.16,225.43,474.16,241.29Z" fill="#23a463"></path><g style="opacity:0.7000000000000001"><path d="M474.16,241.29c0,1,0,1.93,0,2.88,0,.41,0,.83,0,1.24,0,.67,0,1.35-.05,2,0,.4,0,.81-.05,1.21,0,1-.08,2-.15,3s-.13,2.11-.21,3.15c-.05.63-.1,1.26-.17,1.89s-.1,1.28-.17,1.91c-.1,1-.21,2.07-.34,3.09-.07.71-.16,1.44-.26,2.16,0,.38-.09.75-.15,1.13a4,4,0,0,1-.09.59,180.07,180.07,0,0,1-28.91,75.19c-127.82,104-254,110.56-378.48,11.85-24.71-31.67-39.16-70-39.16-111.3,0-38.53,31.58-145,205.77-208.53,60-21.85,179.79,73.94,224.82,154.11C467.6,206.63,474.16,225.43,474.16,241.29Z" style="fill:#fff"></path></g></g><g id="Clouds"><path d="M325.34,178l62.85,2.22c10,.36,10.52-12.39-.53-15.65l-.42-.12c10.23-9.67-22.35-31.06-37-1.2-1.82-8.24-19.48-4.63-19.2,5.39C325.54,162.29,317.19,172.68,325.34,178Z" style="fill:none;stroke:#515b60;stroke-linecap:round;stroke-linejoin:round"></path><path d="M104.24,141.32l53.08-.89c8.46-.14,7.61-11.54-2-13.93l-.37-.09c7.63-9.09-21.91-26.67-31.26.62-2.35-7.27-16.85-3.24-15.6,5.69C102.84,127.34,96.86,137,104.24,141.32Z" style="fill:none;stroke:#515b60;stroke-linecap:round;stroke-linejoin:round"></path><path d="M314.15,100.46a12.53,12.53,0,0,1-1.88-.61c-1.13-.44-2.59-1.19-4.1-1.92a12.25,12.25,0,0,0-4-1.2c-1.07-.12-1.8,0-1.9-.28s.53-.8,1.83-1a8.25,8.25,0,0,1,4.89.83,14.77,14.77,0,0,1,3.8,2.82C313.63,99.9,314.15,100.46,314.15,100.46Z" style="fill:#515b60"></path><path d="M320.75,95.15l-1.36.53c-.81.33-1.83.79-3,1.29-2.27,1-4.21,2-4.53,1.59-.15-.21.15-.72.81-1.35a10.23,10.23,0,0,1,3-2,6.94,6.94,0,0,1,3.6-.5,6,6,0,0,1,1.09.25Z" style="fill:#515b60"></path><path d="M301.9,104.42l-.37-.23c-.23-.15-.58-.34-1-.57a21.76,21.76,0,0,0-3.33-1.45c-2.64-1-5-.74-5.08-1.14,0-.18.54-.48,1.56-.63a8.91,8.91,0,0,1,4,.45,7.88,7.88,0,0,1,3.31,2.22,6.91,6.91,0,0,1,.72,1C301.83,104.28,301.9,104.42,301.9,104.42Z" style="fill:#515b60"></path><path d="M304.5,99s-.38.23-.95.55l-2.11,1.18c-1.6.88-2.83,1.9-3.13,1.63-.14-.13,0-.56.41-1.11a6.43,6.43,0,0,1,2-1.75,5.35,5.35,0,0,1,2.62-.63A4.72,4.72,0,0,1,304.5,99Z" style="fill:#515b60"></path><path d="M299.71,95.84s-.89-.31-2.26-.89-3.22-1.4-5.23-2.06a14.61,14.61,0,0,0-5.31-.74c-1.38.08-2.26.35-2.39.1s.61-.94,2.16-1.4a10.58,10.58,0,0,1,6.12.26,15.58,15.58,0,0,1,5.14,3A22.06,22.06,0,0,1,299.71,95.84Z" style="fill:#515b60"></path><path d="M305.79,88.12l-.51.15c-.33.08-.79.22-1.34.39a38.89,38.89,0,0,0-4.07,1.6c-3.07,1.38-5.05,3.42-5.48,3.09-.19-.15.06-.9.85-1.87a10.8,10.8,0,0,1,3.85-2.91,9.68,9.68,0,0,1,4.75-.84,9.23,9.23,0,0,1,1.44.24Z" style="fill:#515b60"></path></g><g id="Mountain"><path d="M31.28,278.49,70.8,221.56l23.23-7,5.17-17.88a31.56,31.56,0,0,1,16.2-19.45h0L125,148l29.42-7,33.91-68.8,22.45-.77,20.9-10.06,18.58-7.75,20.13,23.23L289,121l27.25,19.25L344.09,196h0a116.2,116.2,0,0,1,58.07,46.81L428,283.51,169.9,297.43Z" style="fill:#fff"></path><g style="clip-path:url(#clip-path)"><path d="M176.88,128.56c-1.09,3.19-2.25,6.42-4.32,9.07a15.57,15.57,0,0,1-9.07,5.6,28.45,28.45,0,0,0,13.8,1.66,29.14,29.14,0,0,1,10.47-25.35,48.75,48.75,0,0,1,5.75-28.63c1.24-2.26,2.71-4.52,3-7.08.15-1.48-.27-3.72-1.54-4.69-2.78-2.13-2.08,0-3.35,2-2.52,4-3.1,11-4.46,15.56Q182.34,112.72,176.88,128.56Z" fill="#23a463"></path><path d="M176.88,128.56c-1.09,3.19-2.25,6.42-4.32,9.07a15.57,15.57,0,0,1-9.07,5.6,28.45,28.45,0,0,0,13.8,1.66,29.14,29.14,0,0,1,10.47-25.35,48.75,48.75,0,0,1,5.75-28.63c1.24-2.26,2.71-4.52,3-7.08.15-1.48-.27-3.72-1.54-4.69-2.78-2.13-2.08,0-3.35,2-2.52,4-3.1,11-4.46,15.56Q182.34,112.72,176.88,128.56Z" style="fill:#fff;opacity:0.8"></path><path d="M119.58,210.45a3.09,3.09,0,0,0-.69-3.26,7.92,7.92,0,0,0,7.82-2.92,23.44,23.44,0,0,1,3.86-20.35c-.88,2.66-1.78,5.4-1.63,8.2s1.57,5.72,4.15,6.82c6.54,2.78,14.21-7.35,20.1-3.36l-7,6.06,18.93-3.53,2.58-5.85c.93,2.17,1.85,4.35,2.78,6.53a24.13,24.13,0,0,1,12-16.4c-5.71,5.64-4.27,16.75-11.24,20.72-2.95,1.67-6.54,1.47-9.92,1.69-10.23.68-19.59,5.66-29.2,9.24-8.76,3.25-21,6.24-29.5.86C105,213.93,118.87,212.3,119.58,210.45Z" fill="#23a463"></path><path d="M119.58,210.45a3.09,3.09,0,0,0-.69-3.26,7.92,7.92,0,0,0,7.82-2.92,23.44,23.44,0,0,1,3.86-20.35c-.88,2.66-1.78,5.4-1.63,8.2s1.57,5.72,4.15,6.82c6.54,2.78,14.21-7.35,20.1-3.36l-7,6.06,18.93-3.53,2.58-5.85c.93,2.17,1.85,4.35,2.78,6.53a24.13,24.13,0,0,1,12-16.4c-5.71,5.64-4.27,16.75-11.24,20.72-2.95,1.67-6.54,1.47-9.92,1.69-10.23.68-19.59,5.66-29.2,9.24-8.76,3.25-21,6.24-29.5.86C105,213.93,118.87,212.3,119.58,210.45Z" style="fill:#fff;opacity:0.8"></path><path d="M81.1,281.53c6.83-10.18,18.3-18.93,20.47-31l3.42-19S96.86,256.62,93.06,260s-15.21,18.54-15.21,18.54Z" fill="#23a463"></path><path d="M277.93,178.35l-.12-.89c-.16-.3-.31-.6-.47-.89C277.54,177.16,277.74,177.75,277.93,178.35Z" style="fill:#e4f8e9"></path><path d="M144.38,258.89,143,253.71q-3.15,8.18-6.31,16.34c-1.19,3.09-2.4,6.27-2.42,9.58a10.18,10.18,0,0,0,5.33,8.36,24.25,24.25,0,0,1,3.43-15.89c2.92-4.8,6.58-9.13,9.2-14.09,5.66-10.69,7.54-23.58,11.72-34.87-3.69.11-8,12.76-9.65,16.09Z" fill="#23a463"></path><path d="M166.78,144.23l-12.37-2.65L125,148,149.61,164l11.88-1.9,10.94-6.65,14.73,4.27,3.33,3.33,22.81,1.43,29-6.66,28.51-1.42L282.21,144l19,.95,15-4.67L289,121l-16.74,10.14s1.9,4.28-4.75,6.18-13.31,3.32-13.31,3.32H241.34l-10.46,1.9-24.71,4.76s-27.09-3.81-29-2.85S166.78,144.23,166.78,144.23Z" fill="#23a463"></path><path d="M166.78,144.23l-12.37-2.65L125,148,149.61,164l11.88-1.9,10.94-6.65,14.73,4.27,3.33,3.33,22.81,1.43,29-6.66,28.51-1.42L282.21,144l19,.95,15-4.67L289,121l-16.74,10.14s1.9,4.28-4.75,6.18-13.31,3.32-13.31,3.32H241.34l-10.46,1.9-24.71,4.76s-27.09-3.81-29-2.85S166.78,144.23,166.78,144.23Z" style="fill:#fff;opacity:0.8"></path><path d="M201.89,200.54c1.22-5.18,1.93-12.15,3.15-17.33-7.15,8.47-8.22,20.83-15.32,29.34-3.07,3.69-7.11,6.46-10.27,10.07-4.84,5.57-7.28,12.77-9.61,19.77-5.18,15.58-10.43,31.88-8,48.12,4.87-11.5,4.92-16.78,13.95-28.18,5.27-6.65,7.26-22,11.49-29.31,4.69-8.12,9.17-9.12,10-15.16a64.52,64.52,0,0,1,3.81-15.2Z" fill="#23a463"></path><path d="M272.93,169.33c4.32,9.65,9.75,17.91,15,26.46,4.7,7.7,18.31,10.05,22.72,17.92,11,19.63,17.82,26.23,24.56,40.62l10-2.08A183.56,183.56,0,0,0,318.05,213c5.57,1.44,17,2.09,17.09,1-10.31-2.73-13.92-5.44-23-11.05-12.87-8-30.36-20.14-38.92-32.62" fill="#23a463"></path><path d="M331.07,203.36c.34.93.68,1.86,1,2.79l-14.38-1.39c6.71,3.07,13.64,6.31,18.45,11.91,2.3,2.68,4.25,6,7.55,7.27,1.72.65,3.61.66,5.38,1.16,5.73,1.62,8.75,7.74,11.08,13.23l10.07-5.42c-3,.14-5.82-1.59-7.75-3.88a29.51,29.51,0,0,1-4.24-7.88,7.29,7.29,0,0,1-.82-4.49c.38-1.51,2.24-2.7,3.52-1.83-.2-2.28-3-3.14-5.16-3.89s-4.52-3.17-3.09-5c1.27-1.59,3.8-.48,5.44.72C351.8,202.47,338.09,200.71,331.07,203.36Z" fill="#23a463"></path><path d="M81.1,281.53c6.83-10.18,18.3-18.93,20.47-31l3.42-19S96.86,256.62,93.06,260s-15.21,18.54-15.21,18.54Z" style="fill:#fff;opacity:0.8"></path><path d="M144.38,258.89,143,253.71q-3.15,8.18-6.31,16.34c-1.19,3.09-2.4,6.27-2.42,9.58a10.18,10.18,0,0,0,5.33,8.36,24.25,24.25,0,0,1,3.43-15.89c2.92-4.8,6.58-9.13,9.2-14.09,5.66-10.69,7.54-23.58,11.72-34.87-3.69.11-8,12.76-9.65,16.09Z" style="fill:#fff;opacity:0.8"></path><g style="opacity:0.8"><path d="M201.89,200.54c1.22-5.18,1.93-12.15,3.15-17.33-7.15,8.47-8.22,20.83-15.32,29.34-3.07,3.69-7.11,6.46-10.27,10.07-4.84,5.57-7.28,12.77-9.61,19.77-5.18,15.58-10.43,31.88-8,48.12,4.87-11.5,4.92-16.78,13.95-28.18,5.27-6.65,7.26-22,11.49-29.31,4.69-8.12,9.17-9.12,10-15.16a64.52,64.52,0,0,1,3.81-15.2Z" style="fill:#fff"></path></g><path d="M272.93,169.33c4.32,9.65,9.75,17.91,15,26.46,4.7,7.7,18.31,10.05,22.72,17.92,11,19.63,17.82,26.23,24.56,40.62l10-2.08A183.56,183.56,0,0,0,318.05,213c5.57,1.44,17,2.09,17.09,1-10.31-2.73-13.92-5.44-23-11.05-12.87-8-30.36-20.14-38.92-32.62" style="fill:#fff;opacity:0.8"></path><path d="M331.07,203.36c.34.93.68,1.86,1,2.79l-14.38-1.39c6.71,3.07,13.64,6.31,18.45,11.91,2.3,2.68,4.25,6,7.55,7.27,1.72.65,3.61.66,5.38,1.16,5.73,1.62,8.75,7.74,11.08,13.23l10.07-5.42c-3,.14-5.82-1.59-7.75-3.88a29.51,29.51,0,0,1-4.24-7.88,7.29,7.29,0,0,1-.82-4.49c.38-1.51,2.24-2.7,3.52-1.83-.2-2.28-3-3.14-5.16-3.89s-4.52-3.17-3.09-5c1.27-1.59,3.8-.48,5.44.72C351.8,202.47,338.09,200.71,331.07,203.36Z" style="fill:#fff;opacity:0.8"></path><path d="M146.71,219.22l-2.16,3.13a19,19,0,0,1,10.73-2.27c-.45.76-.91,1.52-1.36,2.29l9-5c.15,1.15.29,2.3.43,3.45l12.69-13.33c-16.24,2.22-33.14,5.42-48.51,11.24C129.75,218.94,145.67,220.73,146.71,219.22Z" fill="#23a463"></path><path d="M146.71,219.22l-2.16,3.13a19,19,0,0,1,10.73-2.27c-.45.76-.91,1.52-1.36,2.29l9-5c.15,1.15.29,2.3.43,3.45l12.69-13.33c-16.24,2.22-33.14,5.42-48.51,11.24C129.75,218.94,145.67,220.73,146.71,219.22Z" style="fill:#fff;opacity:0.8"></path><path d="M205.63,124.5c1.81-1.46,4.71-.19,5.84,1.85s1,4.49,1.13,6.81.47,4.87,2.2,6.42c-1.72-4,.76-8.87,4.43-11.27s8.21-3,12.57-3.47a15.22,15.22,0,0,0-10.88-6.29c-1.42-.13-3-.14-4-1.18a5,5,0,0,1-1-2.44q-2.05-9.75-4.1-19.5a32.81,32.81,0,0,1-2.24,9.67c1.72-4.3-6.06-15.5-10.53-13.15C206.18,99.12,206.41,115,205.63,124.5Z" fill="#23a463"></path><path d="M205.63,124.5c1.81-1.46,4.71-.19,5.84,1.85s1,4.49,1.13,6.81.47,4.87,2.2,6.42c-1.72-4,.76-8.87,4.43-11.27s8.21-3,12.57-3.47a15.22,15.22,0,0,0-10.88-6.29c-1.42-.13-3-.14-4-1.18a5,5,0,0,1-1-2.44q-2.05-9.75-4.1-19.5a32.81,32.81,0,0,1-2.24,9.67c1.72-4.3-6.06-15.5-10.53-13.15C206.18,99.12,206.41,115,205.63,124.5Z" style="fill:#fff;opacity:0.8"></path><path d="M214.85,76.22c6.76,6,10.68,14.58,14.42,22.85l11.28,25A9.85,9.85,0,0,0,242,113.69c.26,6.2,6.47,11.46,12.62,10.71q-.25-6.95-.5-13.89l6,11.26a61.2,61.2,0,0,0-2.4-17.69c3.45,2.86,4.54,7.57,6.22,11.72s4.95,8.48,9.42,8.34c1.39-.24,2,2.1.87,3s-2.73.57-4-.05-2.46-1.5-3.87-1.64c-3.56-.34-5.52,3.85-7.94,6.49-4.14,4.52-11,4.88-17.15,4.93-.56-9.61-14.49-19.38-15.15-21.85-5.23-19.49-2.46-28.25-10.92-37.15l2.36,2.46" fill="#23a463"></path><path d="M214.85,76.22c6.76,6,10.68,14.58,14.42,22.85l11.28,25A9.85,9.85,0,0,0,242,113.69c.26,6.2,6.47,11.46,12.62,10.71q-.25-6.95-.5-13.89l6,11.26a61.2,61.2,0,0,0-2.4-17.69c3.45,2.86,4.54,7.57,6.22,11.72s4.95,8.48,9.42,8.34c1.39-.24,2,2.1.87,3s-2.73.57-4-.05-2.46-1.5-3.87-1.64c-3.56-.34-5.52,3.85-7.94,6.49-4.14,4.52-11,4.88-17.15,4.93-.56-9.61-14.49-19.38-15.15-21.85-5.23-19.49-2.46-28.25-10.92-37.15l2.36,2.46" style="fill:#fff;opacity:0.8"></path><path d="M237.73,72.09c3.14,1,6.6.92,9.72,2a11.55,11.55,0,0,0-.1-5.23,22.25,22.25,0,0,1,3.46,10.45l-25.05.28-2-2.21,4.36-2.71a5.44,5.44,0,0,0,6.21,1.37c-1.48-2.16-3.12-5.23-2.49-7.67C234,68.89,235.31,71.28,237.73,72.09Z" fill="#23a463"></path><path d="M237.73,72.09c3.14,1,6.6.92,9.72,2a11.55,11.55,0,0,0-.1-5.23,22.25,22.25,0,0,1,3.46,10.45l-25.05.28-2-2.21,4.36-2.71a5.44,5.44,0,0,0,6.21,1.37c-1.48-2.16-3.12-5.23-2.49-7.67C234,68.89,235.31,71.28,237.73,72.09Z" style="fill:#fff;opacity:0.8"></path><path d="M172.9,158.25s.95,8.08-1,14.26,2.85,7.6,8.08.47,6.18-10.46.95-12.83S172.9,158.25,172.9,158.25Z" fill="#23a463"></path><path d="M172.9,158.25s.95,8.08-1,14.26,2.85,7.6,8.08.47,6.18-10.46.95-12.83S172.9,158.25,172.9,158.25Z" style="fill:#fff;opacity:0.8"></path><path d="M133.93,160.15s3.33,8.08,2.85,13.78,4.28-.47,4.28-.47L139.63,182s7.13-9.5,6.18-14.73S133.93,160.15,133.93,160.15Z" fill="#23a463"></path><path d="M133.93,160.15s3.33,8.08,2.85,13.78,4.28-.47,4.28-.47L139.63,182s7.13-9.5,6.18-14.73S133.93,160.15,133.93,160.15Z" style="fill:#fff;opacity:0.8"></path><path d="M331,189.51c-.64-2.2-4.31-2.5-5.3-.44,1-1.93-1.37-3.75-2.9-5.29-3.92-4-3.05-10.45-1.91-15.91A14.21,14.21,0,0,0,314.78,182a4.27,4.27,0,0,0-7.86,3.31,25.4,25.4,0,0,1-8,.45,8.55,8.55,0,0,1-6.44-4.22c-.58-1.17-1.2-2.8-2.5-2.67-.89.09-1.41,1-2.11,1.54-2.25,1.73-5.44-.76-6.47-3.4s-1.33-5.84-3.57-7.57c-.14,1.85-.28,3.7-.41,5.55l.35,2.44q5.18,10,10.37,19.94c.84-2.3,2-4.9,4.34-5.6,2.05-.61,4.17.5,6.08,1.45a49.46,49.46,0,0,0,26.78,4.85q.67-2.53,1.33-5.07L340,197.92Z" fill="#23a463"></path><path d="M331,189.51c-.64-2.2-4.31-2.5-5.3-.44,1-1.93-1.37-3.75-2.9-5.29-3.92-4-3.05-10.45-1.91-15.91A14.21,14.21,0,0,0,314.78,182a4.27,4.27,0,0,0-7.86,3.31,25.4,25.4,0,0,1-8,.45,8.55,8.55,0,0,1-6.44-4.22c-.58-1.17-1.2-2.8-2.5-2.67-.89.09-1.41,1-2.11,1.54-2.25,1.73-5.44-.76-6.47-3.4s-1.33-5.84-3.57-7.57c-.14,1.85-.28,3.7-.41,5.55l.35,2.44q5.18,10,10.37,19.94c.84-2.3,2-4.9,4.34-5.6,2.05-.61,4.17.5,6.08,1.45a49.46,49.46,0,0,0,26.78,4.85q.67-2.53,1.33-5.07L340,197.92Z" style="fill:#fff;opacity:0.8"></path></g><path d="M31.28,278.49,70.8,221.56l23.23-7,5.17-17.88a31.56,31.56,0,0,1,16.2-19.45h0L125,148l29.42-7,33.91-68.8,22.45-.77,20.9-10.06,18.58-7.75,20.13,23.23L289,121l27.25,19.25L344.09,196h0a116.2,116.2,0,0,1,58.07,46.81L428,283.51,169.9,297.43Z" style="fill:none;stroke:#23A463;stroke-linecap:round;stroke-linejoin:round"></path><path d="M141.87,255.57q-4.19,15.12-8.36,30.24" style="fill:none;stroke:#23A463;stroke-linecap:round;stroke-linejoin:round"></path><path d="M267.42,143.73l17.65-9.11" style="fill:none;stroke:#23A463;stroke-linecap:round;stroke-linejoin:round"></path><path d="M280.84,158.7a45.78,45.78,0,0,1,12.39-8.26c3.92-1.77,8.61-.28,12.91-.32" style="fill:none;stroke:#23A463;stroke-linecap:round;stroke-linejoin:round"></path><path d="M81.1,281.53c6.83-10.18,18.3-18.93,20.47-31l3.42-19" style="fill:none;stroke:#23A463;stroke-linecap:round;stroke-linejoin:round"></path><path d="M191.91,76.51l5.23,9a16.52,16.52,0,0,0-7.61,10.94c-1.42,7.6-1.9,24.23-1.9,24.23s-5.22,1.9-7.12,6.66-3.33,17.11-3.33,17.11l29,2.85,20-3.81" style="fill:none;stroke:#23A463;stroke-linecap:round;stroke-linejoin:round"></path><path d="M212.35,76l6.17,6.65L225.65,115l9,6.18,5.71,15.68,18.06-2.37s.95-6.66,5.7-7.61a7.08,7.08,0,0,1,7.13,2.38l4.75-2.85" style="fill:none;stroke:#23A463;stroke-linecap:round;stroke-linejoin:round"></path><path d="M226.6,80.78h22.34l5.23-2.37s4.28,2.37,7.13,1.42a25.07,25.07,0,0,1,6.65-1" style="fill:#fff;stroke:#23A463;stroke-linecap:round;stroke-linejoin:round"></path><path d="M312.15,142.09l-10.93,2.85s-15.21-.95-19-.95-11.41,12.36-11.41,12.36l-28.51,1.42-29,6.66s-21.86.47-25.19-2.86-15.68-6.17-15.68-6.17l-10.94,6.65L149.61,164l-17.1-9" style="fill:none;stroke:#23A463;stroke-linecap:round;stroke-linejoin:round"></path><path d="M98.29,215.28l25.19,2.37L143,209.1s10.93-3.33,28.52-4.28" style="fill:none;stroke:#23A463;stroke-linecap:round;stroke-linejoin:round"></path><path d="M299.32,193.89s18.53,4.28,26.14,3.33c0,0-1-4.75,2.85-4.75s7.13,4.75,7.13,4.75l5.7-.48" style="fill:none;stroke:#23A463;stroke-linecap:round;stroke-linejoin:round"></path><polyline points="272.7 169.18 287.91 195.79 310.72 212.9 329.26 244.74 334.01 253.3" style="fill:none;stroke:#23A463;stroke-linecap:round;stroke-linejoin:round"></polyline><path d="M360.62,237.61s-2.85-5.22-6.17-10-10.94-3.32-10.94-3.32l-7.6-10L311.2,202.45" style="fill:none;stroke:#23A463;stroke-linecap:round;stroke-linejoin:round"></path><path d="M169.1,214.8s-7.61,13.31-10.46,24.71a185.81,185.81,0,0,1-6.17,20s-6.18,6.17-9,10.93-3.81,15.68-3.81,15.68" style="fill:none;stroke:#23A463;stroke-linecap:round;stroke-linejoin:round"></path><path d="M163.14,290.79a53.31,53.31,0,0,1,12.8-28.91l8.28-26.65c2.17-7,6.73-10,12.87-14v-3l5.23-19.49" style="fill:none;stroke:#23A463;stroke-linecap:round;stroke-linejoin:round"></path></g><g id="Landscape"><path d="M473.85,251.63q-.41,7-1.37,13.92a173.12,173.12,0,0,1-3.48,18,179.24,179.24,0,0,1-15.1,39.72,184.13,184.13,0,0,1-10.19,17.28c-75.1,2.28-229.91,4.11-278.51-17.26h0c-.49-.21-1-.43-1.42-.65s-.92-.44-1.36-.66c-.62-.31-1.22-.63-1.79-1h0c-.57-.32-1.12-.65-1.66-1l-.09-.06-1.44-.95a29.39,29.39,0,0,1-2.64-2.11l-.56-.54c-.19-.18-.35-.35-.52-.54v0a12.26,12.26,0,0,1-1-1.13q-.22-.29-.42-.57c-.27-.39-.51-.78-.73-1.17-.12-.21-.22-.43-.33-.63s-.05-.12-.08-.19c-.1-.24-.2-.47-.29-.71s-.17-.51-.25-.77-.13-.52-.18-.78-.11-.63-.14-.95a10.89,10.89,0,0,1,.59-4.68c.08-.27.18-.52.28-.78a15.73,15.73,0,0,1,1.16-2.38c.31-.54.66-1.08,1-1.62.19-.27.39-.56.61-.84a31.34,31.34,0,0,1,2.15-2.55h0c.28-.3.55-.58.84-.87h0l.52-.28.36-.2c1.15-.6,3.46-1.72,7.14-3.23l.67-.27,1.65-.67h0q3.22-1.28,7.6-2.8l1-.36c2.43-.84,5.14-1.72,8.11-2.64l1.3-.4c.54-.16,1.09-.34,1.66-.5,1.14-.35,2.31-.7,3.53-1,4.43-1.28,9.35-2.62,14.81-4l3.64-.9,3.78-.9q6.75-1.61,14.48-3.22c1.47-.3,3-.62,4.5-.92l2.31-.47,3.34-.65,3.85-.74,7.57-1.39,6.87-1.19c1.86-.31,3.75-.63,5.69-.94l3.84-.61,3.34-.53,5.35-.81,3-.45c3-.44,6.13-.88,9.32-1.31l6.27-.85,3.46-.44,3.33-.43q6.84-.84,14.09-1.68,3.44-.39,7-.77c.47,0,.93-.1,1.4-.15h0l2.27-.24c2.47-.26,5-.52,7.52-.77.58-.06,1.17-.11,1.75-.18,2-.19,3.95-.39,6-.57,2.57-.25,5.19-.49,7.83-.72l4.43-.39,6.32-.53q9.09-.73,18.68-1.43l4.4-.31,4.46-.3,9.43-.6c2.94-.18,5.92-.36,8.93-.52,1.58-.09,3.15-.19,4.74-.26l5.47-.3,9-.44,5-.23Z" fill="#23a463"></path><path d="M473.85,251.63q-.41,7-1.37,13.92a173.12,173.12,0,0,1-3.48,18,179.24,179.24,0,0,1-15.1,39.72,184.13,184.13,0,0,1-10.19,17.28c-75.1,2.28-229.91,4.11-278.51-17.26h0c-.49-.21-1-.43-1.42-.65s-.92-.44-1.36-.66c-.62-.31-1.22-.63-1.79-1h0c-.57-.32-1.12-.65-1.66-1l-.09-.06-1.44-.95a29.39,29.39,0,0,1-2.64-2.11l-.56-.54c-.19-.18-.35-.35-.52-.54v0a12.26,12.26,0,0,1-1-1.13q-.22-.29-.42-.57c-.27-.39-.51-.78-.73-1.17-.12-.21-.22-.43-.33-.63s-.05-.12-.08-.19c-.1-.24-.2-.47-.29-.71s-.17-.51-.25-.77-.13-.52-.18-.78-.11-.63-.14-.95a10.89,10.89,0,0,1,.59-4.68c.08-.27.18-.52.28-.78a15.73,15.73,0,0,1,1.16-2.38c.31-.54.66-1.08,1-1.62.19-.27.39-.56.61-.84a31.34,31.34,0,0,1,2.15-2.55h0c.28-.3.55-.58.84-.87h0l.52-.28.36-.2c1.15-.6,3.46-1.72,7.14-3.23l.67-.27,1.65-.67h0q3.22-1.28,7.6-2.8l1-.36c2.43-.84,5.14-1.72,8.11-2.64l1.3-.4c.54-.16,1.09-.34,1.66-.5,1.14-.35,2.31-.7,3.53-1,4.43-1.28,9.35-2.62,14.81-4l3.64-.9,3.78-.9q6.75-1.61,14.48-3.22c1.47-.3,3-.62,4.5-.92l2.31-.47,3.34-.65,3.85-.74,7.57-1.39,6.87-1.19c1.86-.31,3.75-.63,5.69-.94l3.84-.61,3.34-.53,5.35-.81,3-.45c3-.44,6.13-.88,9.32-1.31l6.27-.85,3.46-.44,3.33-.43q6.84-.84,14.09-1.68,3.44-.39,7-.77c.47,0,.93-.1,1.4-.15h0l2.27-.24c2.47-.26,5-.52,7.52-.77.58-.06,1.17-.11,1.75-.18,2-.19,3.95-.39,6-.57,2.57-.25,5.19-.49,7.83-.72l4.43-.39,6.32-.53q9.09-.73,18.68-1.43l4.4-.31,4.46-.3,9.43-.6c2.94-.18,5.92-.36,8.93-.52,1.58-.09,3.15-.19,4.74-.26l5.47-.3,9-.44,5-.23Z" style="fill:#fff;opacity:0.2"></path><path d="M473.85,251.63q-.41,7-1.37,13.92a173.12,173.12,0,0,1-3.48,18H428c-76.24,3.42-132.65,10-173.65,17h0c-49.81,8.53-76.88,17.73-89.11,22.74h0c-.49-.21-1-.43-1.42-.65s-.92-.44-1.36-.66c-.62-.31-1.22-.63-1.79-1h0c-.57-.32-1.12-.65-1.66-1l-.09-.06-1.44-.95a24.16,24.16,0,0,1-2.64-2.11l-.56-.54c-.19-.18-.35-.35-.52-.54v0a12.26,12.26,0,0,1-1-1.13q-.22-.29-.42-.57a10.32,10.32,0,0,1-.73-1.17c-.12-.21-.22-.43-.33-.63s-.05-.12-.08-.19c-.1-.24-.2-.47-.29-.71s-.17-.51-.25-.77-.13-.52-.18-.78-.11-.63-.14-.95a10.89,10.89,0,0,1,.59-4.68c.08-.27.18-.52.28-.78a15.73,15.73,0,0,1,1.16-2.38,16.32,16.32,0,0,1,1-1.62c.19-.27.39-.56.61-.84a31.34,31.34,0,0,1,2.15-2.55h0c.26-.28.54-.58.83-.87h0l.52-.28.36-.2c1.15-.6,3.46-1.72,7.14-3.23l.67-.27,1.65-.67h0q3.22-1.28,7.6-2.8l1-.36c2.43-.84,5.14-1.72,8.11-2.64l1.3-.4c.54-.16,1.09-.34,1.66-.5,1.14-.35,2.31-.7,3.53-1,4.43-1.28,9.35-2.62,14.81-4l3.64-.9,3.78-.9q6.75-1.61,14.48-3.22c1.47-.3,3-.62,4.5-.92l2.31-.47,3.34-.65,3.85-.74,7.57-1.39,6.87-1.19c1.86-.31,3.75-.63,5.69-.94l3.84-.61,3.34-.53,5.35-.81,3-.45c3-.44,6.13-.88,9.32-1.31l6.27-.85,3.46-.44,3.33-.43q6.84-.84,14.09-1.68l7-.77c.47,0,.93-.1,1.4-.15h0l2.27-.24,7.52-.77c.58-.06,1.17-.11,1.75-.18l6-.57,7.83-.72,4.43-.39,6.32-.53q9.09-.73,18.68-1.43l4.4-.31,4.46-.3,9.43-.6c2.94-.18,5.92-.36,8.93-.52,1.58-.09,3.15-.19,4.74-.26l5.47-.3,9-.44,5-.23Z" fill="#23a463"></path><path d="M473.85,251.63q-.41,7-1.37,13.92a173.12,173.12,0,0,1-3.48,18H428c-76.24,3.42-132.65,10-173.65,17h0c-49.81,8.53-76.88,17.73-89.11,22.74h0c-.49-.21-1-.43-1.42-.65s-.92-.44-1.36-.66c-.62-.31-1.22-.63-1.79-1h0c-.57-.32-1.12-.65-1.66-1l-.09-.06-1.44-.95a24.16,24.16,0,0,1-2.64-2.11l-.56-.54c-.19-.18-.35-.35-.52-.54v0a12.26,12.26,0,0,1-1-1.13q-.22-.29-.42-.57a10.32,10.32,0,0,1-.73-1.17c-.12-.21-.22-.43-.33-.63s-.05-.12-.08-.19c-.1-.24-.2-.47-.29-.71s-.17-.51-.25-.77-.13-.52-.18-.78-.11-.63-.14-.95a10.89,10.89,0,0,1,.59-4.68c.08-.27.18-.52.28-.78a15.73,15.73,0,0,1,1.16-2.38,16.32,16.32,0,0,1,1-1.62c.19-.27.39-.56.61-.84a31.34,31.34,0,0,1,2.15-2.55h0c.26-.28.54-.58.83-.87h0l.52-.28.36-.2c1.15-.6,3.46-1.72,7.14-3.23l.67-.27,1.65-.67h0q3.22-1.28,7.6-2.8l1-.36c2.43-.84,5.14-1.72,8.11-2.64l1.3-.4c.54-.16,1.09-.34,1.66-.5,1.14-.35,2.31-.7,3.53-1,4.43-1.28,9.35-2.62,14.81-4l3.64-.9,3.78-.9q6.75-1.61,14.48-3.22c1.47-.3,3-.62,4.5-.92l2.31-.47,3.34-.65,3.85-.74,7.57-1.39,6.87-1.19c1.86-.31,3.75-.63,5.69-.94l3.84-.61,3.34-.53,5.35-.81,3-.45c3-.44,6.13-.88,9.32-1.31l6.27-.85,3.46-.44,3.33-.43q6.84-.84,14.09-1.68l7-.77c.47,0,.93-.1,1.4-.15h0l2.27-.24,7.52-.77c.58-.06,1.17-.11,1.75-.18l6-.57,7.83-.72,4.43-.39,6.32-.53q9.09-.73,18.68-1.43l4.4-.31,4.46-.3,9.43-.6c2.94-.18,5.92-.36,8.93-.52,1.58-.09,3.15-.19,4.74-.26l5.47-.3,9-.44,5-.23Z" style="fill:#fff;opacity:0.30000000000000004"></path><path d="M469,283.51H428c-76.24,3.42-132.65,10-173.65,17h0c-49.81,8.53-76.88,17.73-89.11,22.74" style="fill:none;stroke:#515b60;stroke-miterlimit:10"></path><path d="M443.6,340.67l-220.73,7-157.8,4.94a183.28,183.28,0,0,1-36-78.36c3.1.37,33.54,4,76.85,9.09L136.82,287l30.5,3.55h0c27.81,3.24,57.57,6.66,87,10,70,8,138.22,15.46,174.07,18.67a173.25,173.25,0,0,1,25.51,4.05,184.13,184.13,0,0,1-10.19,17.28Z" fill="#23a463"></path><path d="M443.6,340.67l-220.73,7-157.8,4.94a183.28,183.28,0,0,1-36-78.36c3.1.37,33.54,4,76.85,9.09L136.82,287l30.5,3.55h0c27.81,3.24,57.57,6.66,87,10,70,8,138.22,15.46,174.07,18.67a173.25,173.25,0,0,1,25.51,4.05,184.13,184.13,0,0,1-10.19,17.28Z" style="fill:#263238;opacity:0.1"></path><path d="M29,274.23c3.1.37,33.54,4,76.85,9.09L136.82,287l30.5,3.55h0c27.81,3.24,57.57,6.66,87,10,70,8,138.22,15.46,174.07,18.67a173.25,173.25,0,0,1,25.51,4.05" style="fill:none;stroke:#515b60;stroke-miterlimit:10"></path><polygon points="342.29 314.16 351.65 297.69 361.23 314.03 342.29 314.16" style="fill:#fff"></polygon><polygon points="344.89 313.97 351.63 302.12 358.52 313.88 344.89 313.97" style="fill:#263238"></polygon><line x1="351.63" y1="302.12" x2="351.71" y2="314.1" style="fill:none;stroke:#3c464c;stroke-linecap:round;stroke-linejoin:round"></line><polygon points="351.65 297.69 361.23 314.03 381.08 313.9 371.49 297.56 351.65 297.69" style="fill:#263238"></polygon><polygon points="360.6 301.87 364.39 308.34 372.24 308.29 368.45 301.82 360.6 301.87" style="fill:#263238"></polygon><path d="M474.16,241.29c0,1,0,1.93,0,2.88,0,.41,0,.83,0,1.24,0,.67,0,1.35-.05,2,0,.4,0,.81-.05,1.21,0,1-.08,2-.15,3s-.13,2.11-.21,3.15c-.05.63-.1,1.26-.17,1.89s-.1,1.28-.17,1.91c-.1,1-.21,2.07-.34,3.09-.07.71-.16,1.44-.26,2.16,0,.38-.09.75-.15,1.13,0,.19,0,.4-.07.59h0c-18.22,5.79-60.66,11.21-154.8-4.74,0,0,1.47-.41,4.11-1.39h0c12.7-4.68,52.38-22.23,84.11-67.91,17.77-25.58,36.08-19,50.61-4.64C467.6,206.63,474.16,225.43,474.16,241.29Z" fill="#23a463"></path><g style="opacity:0.2"><path d="M474.16,241.29c0,1,0,1.93,0,2.88,0,.41,0,.83,0,1.24,0,.67,0,1.35-.05,2,0,.4,0,.81-.05,1.21,0,1-.08,2-.15,3s-.13,2.11-.21,3.15c-.05.63-.1,1.26-.17,1.89s-.1,1.28-.17,1.91c-.1,1-.21,2.07-.34,3.09-.07.71-.16,1.44-.26,2.16,0,.38-.09.75-.15,1.13,0,.19,0,.4-.07.59h0c-18.22,5.79-60.66,11.21-154.8-4.74,0,0,1.47-.41,4.11-1.39h0c12.7-4.68,52.38-22.23,84.11-67.91,17.77-25.58,36.08-19,50.61-4.64C467.6,206.63,474.16,225.43,474.16,241.29Z" style="fill:#fff"></path></g><path d="M472.46,265.55c-18.22,5.79-60.66,11.21-154.8-4.74" style="fill:none;stroke:#515b60;stroke-miterlimit:10"></path></g><g id="Plants"><polygon points="24.75 306.36 39.73 263.93 29.01 263.93 41.86 227.53 33.26 227.53 54.71 166.76 76.16 227.53 67.56 227.53 80.41 263.93 69.69 263.93 84.67 306.36 24.75 306.36" fill="#23a463"></polygon><polygon points="56.7 333.04 54.28 208.65 53.68 332.29 56.7 333.04" style="fill:#515b60"></polygon><path d="M54,209.62s-4.76,8.18-13.31,10.66c0,0,9-2,13.54-9.08Z" style="fill:#515b60"></path><path d="M55.34,276.49s-8.5,14.34-22.7,18.48c0,0,15.14-3.93,22.64-15.63Z" style="fill:#515b60"></path><path d="M54.08,239.55s-7.43,12.64-20.23,16.35c0,0,13.51-3.06,20.27-13.6Z" style="fill:#515b60"></path><path d="M54.82,248.48s6.86,12.23,19.22,16c0,0-13-3.07-19.56-13.59Z" style="fill:#515b60"></path><path d="M55.91,283.16s7.62,13.57,21.33,17.73c0,0-14.47-3.4-21.7-15.08Z" style="fill:#515b60"></path><path d="M54.68,213s4.59,8.17,12.85,10.67c0,0-8.72-2-13.08-9.08Z" style="fill:#515b60"></path><polygon points="377.7 306.32 383.17 290.81 379.25 290.81 383.95 277.5 380.81 277.5 388.65 255.3 396.49 277.5 393.34 277.5 398.04 290.81 394.12 290.81 399.59 306.32 377.7 306.32" fill="#23a463"></polygon><polygon points="389.37 316.07 388.49 270.61 388.27 315.8 389.37 316.07" style="fill:#515b60"></polygon><path d="M388.38,271a9.35,9.35,0,0,1-4.87,3.9,8.82,8.82,0,0,0,4.95-3.32Z" style="fill:#515b60"></path><path d="M388.87,295.4s-3.1,5.24-8.29,6.76c0,0,5.53-1.44,8.27-5.72Z" style="fill:#515b60"></path><path d="M388.42,281.9s-2.72,4.62-7.4,6c0,0,4.94-1.11,7.41-5Z" style="fill:#515b60"></path><path d="M388.69,285.16s2.5,4.48,7,5.84c0,0-4.77-1.12-7.15-5Z" style="fill:#515b60"></path><path d="M389.08,297.84s2.79,5,7.8,6.48c0,0-5.29-1.24-7.93-5.51Z" style="fill:#515b60"></path><path d="M388.63,272.18a9.18,9.18,0,0,0,4.7,3.9,8.47,8.47,0,0,1-4.78-3.32Z" style="fill:#515b60"></path><polygon points="95.52 321.47 108.9 283.55 99.32 283.55 110.8 251.01 103.12 251.01 122.29 196.7 141.46 251.01 133.78 251.01 145.26 283.55 135.68 283.55 149.06 321.47 95.52 321.47" fill="#23a463"></polygon><polygon points="124.07 345.32 121.91 234.14 121.37 344.65 124.07 345.32" style="fill:#515b60"></polygon><path d="M121.64,235s-4.26,7.31-11.9,9.53c0,0,8.07-1.83,12.11-8.12Z" style="fill:#515b60"></path><path d="M122.85,294.77s-7.59,12.82-20.29,16.52c0,0,13.53-3.52,20.24-14Z" style="fill:#515b60"></path><path d="M121.73,261.76s-6.64,11.29-18.08,14.61c0,0,12.07-2.73,18.11-12.15Z" style="fill:#515b60"></path><path d="M122.39,269.74s6.13,10.93,17.18,14.28c0,0-11.66-2.74-17.48-12.15Z" style="fill:#515b60"></path><path d="M123.36,300.73s6.81,12.14,19.07,15.85c0,0-12.94-3-19.4-13.48Z" style="fill:#515b60"></path><path d="M122.26,238s4.1,7.31,11.49,9.54c0,0-7.8-1.83-11.69-8.11Z" style="fill:#515b60"></path><polygon points="398.35 300.88 409.93 268.07 401.64 268.07 411.58 239.91 404.93 239.91 421.52 192.91 438.11 239.91 431.46 239.91 441.4 268.07 433.1 268.07 444.69 300.88 398.35 300.88" fill="#23a463"></polygon><polygon points="423.05 321.52 421.18 225.31 420.72 320.94 423.05 321.52" style="fill:#515b60"></polygon><path d="M421,226.06s-3.68,6.33-10.3,8.25c0,0,7-1.58,10.48-7Z" style="fill:#515b60"></path><path d="M422,277.78s-6.57,11.09-17.55,14.3c0,0,11.7-3.05,17.51-12.1Z" style="fill:#515b60"></path><path d="M421,249.21s-5.75,9.77-15.65,12.64c0,0,10.45-2.36,15.68-10.51Z" style="fill:#515b60"></path><path d="M421.6,256.12s5.31,9.46,14.87,12.36c0,0-10.09-2.37-15.13-10.52Z" style="fill:#515b60"></path><path d="M422.45,282.94s5.89,10.5,16.5,13.71c0,0-11.2-2.63-16.79-11.66Z" style="fill:#515b60"></path><path d="M421.49,228.63s3.55,6.33,9.94,8.26c0,0-6.74-1.58-10.11-7Z" style="fill:#515b60"></path></g><g id="Floor"><path d="M441.23,341.2c-38.9,58.39-111,97.59-193.53,97.59-76.8,0-144.58-34-185-85.74Z" style="fill:#757575"></path><path d="M160.67,341.63l4.41,3.83-3-11.94q2.79,5.7,5.56,11.4-.37-6.19-.74-12.37,1.62,6.52,3.25,13.05,1.65-6.72,3.32-13.45.08,11.33.17,22.65c-3.39.12-7.77,1.52-9.58-1.71S163.17,345.25,160.67,341.63Z" fill="#23a463"></path><path d="M341.87,336.32l5.86,5.1q-2-7.95-3.94-15.89,3.69,7.58,7.39,15.16l-1-16.45,4.32,17.36q2.21-8.94,4.42-17.89.1,15.06.22,30.13c-4.5.16-10.32,2-12.74-2.28C343.91,347.11,345.19,341.13,341.87,336.32Z" fill="#23a463"></path><path d="M423.16,320q3.69,3.22,7.4,6.43l-5-20.05q4.67,9.57,9.32,19.14-.61-10.38-1.24-20.77,2.73,11,5.45,21.92l5.58-22.58q.13,19,.28,38c-5.69.2-13,2.54-16.08-2.88C425.73,333.59,427.35,326.05,423.16,320Z" fill="#23a463"></path><path d="M174.41,427.47l14.35-26.1,24.85-4.25L226.16,387s14-3.91,27.92-3.17,21.62,4,21.62,4l5.59,5.25,13.38,2.79s12.73,11,14.29,10.55,21.14,1.37,21.14,1.37l9.06,14.59S268.48,485.22,174.41,427.47Z" style="fill:#263238"></path><path d="M225.59,397a17.49,17.49,0,0,1,20.26-2.47c.22-1.52.45-3.05.67-4.57l7.15,1.93c.27,1.51.55,3,.82,4.54a39.81,39.81,0,0,1,22.62,4.89c-.08,1.89-.16,3.78-.25,5.67a6.86,6.86,0,0,1,13.11,2.4,7.18,7.18,0,0,1,7.11,1.65l6.84-4.21c-5-5.72-13.18-7.13-20.3-9.82-11-4.16-21.55-12.19-33.22-10.55l2.16,2.27a4.39,4.39,0,0,1-6.68-2.26l-19.62,2.1a23.55,23.55,0,0,1,0,2.79c-.43-.29-1-.63-1.35-.93C224.86,391.65,226.76,395.82,225.59,397Z" style="fill:#5c5c5c"></path><path d="M207.26,417.47,201.15,407c7.39-.21,14,4.21,20.06,8.45l-7.13-12.29a2.91,2.91,0,0,0-3.8-1.9c-4.3.79-14.82.84-17.65,4,1.73,2.58,4.75,4.72,7.17,6.7C201.68,413.46,206.09,415.48,207.26,417.47Z" style="fill:#5c5c5c"></path><path d="M305.18,416.13a5.83,5.83,0,0,1,3.42,2.25c.69,1.21.08,3.18-1.32,3.24L323.79,416a14.17,14.17,0,0,1-6.8,6.5l6.75-2.7c.95,2,1.9,3.93,2.86,5.89a22,22,0,0,1,2.5-10.81,13.56,13.56,0,0,0,5,8.84,29.53,29.53,0,0,0-2.72-8.45c-1.46-2.59-3.89-4.81-6.83-5.25-2.64-.39-5.26.66-7.91,1-3.87.55-7.81-.35-11.7-.07-3.18.23-7.23,1.66-8.39,4.86C299.31,416.25,302,415,305.18,416.13Z" style="fill:#5c5c5c"></path><path d="M59.37,328.88s-25.14,1.21-25.14,12.58v11.38l21.63,2.24Z" style="fill:#fff;stroke:#676f74;stroke-linecap:round;stroke-linejoin:round"></path><path d="M65.29,312.61c-2.44,3.39-3.57,7.52-4.65,11.55l-8.28,30.76a132.77,132.77,0,0,0,68.21.28c3.84-1,8.2-2.74,9.29-6.56,1.23-4.26-2.33-8.28-5.58-11.3l-13-12.08C101.83,316.53,76.88,296.5,65.29,312.61Z" style="fill:#fff;stroke:#676f74;stroke-linecap:round;stroke-linejoin:round"></path><path d="M126.05,330.42a21.55,21.55,0,0,0-2.88,7.16L118,356.66a82.2,82.2,0,0,0,42.3.18c2.39-.63,5.09-1.7,5.77-4.07.76-2.64-1.45-5.14-3.47-7l-8.08-7.5C148.72,332.85,133.25,320.43,126.05,330.42Z" style="fill:#fff;stroke:#676f74;stroke-linecap:round;stroke-linejoin:round"></path><path d="M406.15,319.75c-7.49.39-15.27,2.31-20.75,7.43s-7.85,14.05-3.83,20.38c2.31,3.63,6.32,5.92,10.49,7s8.52,1.16,12.82,1.22l22.68.27c3.78.05,7.61.09,11.26-.89s7.15-3.13,8.91-6.48c3-5.7-.5-8.48-4.23-11.81s-4.95-5.47-7.9-9C429.05,320.12,416.12,319.25,406.15,319.75Z" style="fill:#fff;stroke:#676f74;stroke-linecap:round;stroke-linejoin:round"></path><path d="M358.42,354.72c2.71,4.44,8.93,4.79,14.14,4.62l27.27-.87c3.95-.12,8.66-.72,10.39-4.27,1.93-4-1.42-8.49-5-11.12-8.34-6.19-18.35-8.73-28.37-6.51C369.72,338.16,351.77,343.83,358.42,354.72Z" style="fill:#fff;stroke:#676f74;stroke-linecap:round;stroke-linejoin:round"></path></g><g id="Character"><polygon points="320.66 433.85 316.65 433.85 314.14 201 323.17 201 320.66 433.85" style="fill:#263238"></polygon><path d="M328,199.73c-.5-.93-1.55-.79-2.75-2.79s-3.57-1.18-4.33-1.41-.79-.55-.59-1.58.57-4.38-1-4.17-2.28,3.78-2.5,4.64a44.14,44.14,0,0,1-2.5,4.64,12.93,12.93,0,0,1-2.23.63c-.86.11-1.67,1.88-1.71,2.71,0,.53,1.07,2.07,1.9,3.14a23.88,23.88,0,0,0,1.5,2.71s1,1,3.62.35,8,1.92,8.6,1.34,1.75-3.71,2.19-5.43A7.89,7.89,0,0,0,328,199.73Z" style="fill:#fff;stroke:#263238;stroke-linecap:round;stroke-linejoin:round"></path><path d="M309.91,206.79a4.77,4.77,0,0,1,.72-2.56c.71-.76,1.64-3.25,2.51-3.73s6.64-1.81,9.9.57,2.86,5.88,3.13,7.56-3.92,7.28-5,7.48,2.79-7.59-1.38-9.94C318.69,205.52,313.47,206.28,309.91,206.79Z" style="fill:#fff;stroke:#263238;stroke-linecap:round;stroke-linejoin:round"></path><g id="freepik--character-2--inject-2"><path d="M262.81,122.24s1.64-2.52,2.23.76-.83,6.8-2.72,8.06-2.72,0-2.72-1.26S262.81,122.24,262.81,122.24Z" style="fill:#fff;stroke:#263238;stroke-linecap:round;stroke-linejoin:round"></path><path d="M231,123.5a2.28,2.28,0,0,0-2.87,1.21,1.93,1.93,0,0,0-.12,1.06c0,3,4.35,7.32,6.25,6.31S231,123.5,231,123.5Z" style="fill:#fff;stroke:#263238;stroke-linecap:round;stroke-linejoin:round"></path><path d="M246.78,94s-4.24,6.56-8.68,8.33c-5.71,2.27-10.33,9.09-10,14.63s9,23.72,10.32,24.23,18.48-.76,19-1.51,3-8.33,5.16-15.65,2.17-11.1,2.17-11.1a21.67,21.67,0,0,0,1.11-7.31c-.16-3-5.55-7.6-5.55-7.6s-4.67-5.08-6.64-4a23.29,23.29,0,0,0-5.16,4.3Z" style="fill:#263238;stroke:#263238;stroke-linecap:round;stroke-linejoin:round"></path><path d="M211.38,257.72s3.68,5.17,3.88,7.17.19,5.76.38,7a1.72,1.72,0,0,1-1.54,2.16,2.07,2.07,0,0,1-1.55-.9,19.77,19.77,0,0,0,.58,3c.38,1.26,2.51,2.34,2.32,3.59s-2.32,1.8-5.23,1.8a8.8,8.8,0,0,1-8.12-5.17c-1.73-3.77-3.47-14.55-3.47-16.55S209.45,256.28,211.38,257.72Z" style="fill:#fff;stroke:#263238;stroke-linecap:round;stroke-linejoin:round"></path><path d="M207.33,264.36s.77,1.61-.78,4.13a16.17,16.17,0,0,0-2.32,4.85,16.3,16.3,0,0,0,1.74,3.59c.78,1.44,3.34,1.27,3.48,2.53a2.57,2.57,0,0,1-.39,2" style="fill:none;stroke:#515b60;stroke-linecap:round;stroke-linejoin:round"></path><path d="M209.77,272a17.56,17.56,0,0,0,1,4.14c.78,1.8,4.84,2.87,3.34,4.85" style="fill:none;stroke:#515b60;stroke-linecap:round;stroke-linejoin:round"></path><path d="M207.33,272.8a14.72,14.72,0,0,0,1,3.41c.58,1,4.45,2.15,3.67,5" style="fill:none;stroke:#515b60;stroke-linecap:round;stroke-linejoin:round"></path><path d="M212.55,273.16s-.39-2.88-.58-4a23.09,23.09,0,0,1-.2-3.11" style="fill:none;stroke:#515b60;stroke-linecap:round;stroke-linejoin:round"></path><path d="M276,147.52a41.87,41.87,0,0,0-17.38-7.31c-10.87-2-25.27,1.26-31,4.79a13.74,13.74,0,0,0-6.25,9.58Z" style="fill:#fff;stroke:#263238;stroke-linecap:round;stroke-linejoin:round"></path><path d="M323.63,209c.46,7.27-15.62,15.21-23.23,6.05-5.62-6.76-14.33-35.34-14.33-35.34S284,223.87,284,226.65a31.58,31.58,0,0,1-1.25,7s-.43,3.08-2.33,4.33-2.69,5-26.08,6.76a131.17,131.17,0,0,1-41.57-3.28c-1.07-.26-1.62-6.06-1.62-6.06l-.81,16.9a9.25,9.25,0,0,1-3.53,2.27c-2.17.76-8.43.25-9.78-.51s-4.11-21.18-3.81-24.71,2.57-52.45,7.4-63.91c3.93-9.31,10.48-13.53,19.72-16.06s27.94-2.1,29-2.35c0,0,18.1,1,26.82-.49,0,0,16.32-.66,21.32,8.66,3.58,6.62,7.82,19.38,10,26.18a76.71,76.71,0,0,0,3.67,9.39l3.57,7.62C319.17,199.83,323.36,204.73,323.63,209Z" fill="#23a463" style="stroke:#263238;stroke-linecap:round;stroke-linejoin:round"></path><path d="M240.47,164.12s3.68,13.45,14.48,18.94" style="fill:none;stroke:#515b60;stroke-linecap:round;stroke-linejoin:round"></path><path d="M256.37,189c.82.39,1.66.77,2.51,1.14" style="fill:none;stroke:#515b60;stroke-linecap:round;stroke-linejoin:round"></path><path d="M240.47,178.06a63.4,63.4,0,0,0,11.95,8.86" style="fill:none;stroke:#515b60;stroke-linecap:round;stroke-linejoin:round"></path><path d="M289.62,232.11c-41.57,17.4-78.78,3.28-78.78,3.28s.54,5.8,1.62,6.06A131.19,131.19,0,0,0,254,244.73c23.38-1.77,33.14-5,35-6.31s1.64-5,1.64-5a13.51,13.51,0,0,1,.11-1.48Z" style="fill:#fff;stroke:#263238;stroke-linecap:round;stroke-linejoin:round"></path><path d="M193.72,251.53s6.25,2.52,11.41,1,6.52-3,7.33-2.78.83,6.3,0,8.07-2.72,3-8.42,3.54-8.69-2.07-9.23-3.54A47.06,47.06,0,0,1,193.72,251.53Z" style="fill:#fff;stroke:#263238;stroke-linecap:round;stroke-linejoin:round"></path></g><path d="M210.28,173.22a194.86,194.86,0,0,0,4.18,39.09" style="fill:none;stroke:#515b60;stroke-linecap:round;stroke-linejoin:round"></path><path d="M227.77,107.72c-2.55,5.49-2.58,9-.34,14.59,2.82,7,9.38,9.25,13.37,9.62,7.35.7,14.51.34,20.72-3.41s8.9-12.07,7.69-18.93c-1-5.9-4.78-14-10.7-16.14C244.84,88.47,233.38,95.62,227.77,107.72Z" style="fill:#bfbfbf;stroke:#263238;stroke-linecap:round;stroke-linejoin:round"></path><path d="M230.28,102.52c-2.8,4.92-3.28,8.28-2,13.92a13.71,13.71,0,0,0,12,10.83c7.34.79,14.49.3,20.27-4.23,5.45-4.27,6.64-12.85,4.62-19.18-1.59-5-5.38-11.24-10.09-12.77C244.7,87.71,235.78,92.83,230.28,102.52Z" style="fill:#999;stroke:#263238;stroke-linecap:round;stroke-linejoin:round"></path><ellipse cx="247.65" cy="101.08" rx="3.17" ry="2.79" style="fill:#263238;stroke:#263238;stroke-linecap:round;stroke-linejoin:round"></ellipse><path d="M239.51,105.8c-3.76,5.92-3.64,13.56-2.81,20.88" style="fill:none;stroke:#263238;stroke-linecap:round;stroke-linejoin:round"></path><path d="M249.21,107.1a90.86,90.86,0,0,1,.91,20.18" style="fill:none;stroke:#263238;stroke-linecap:round;stroke-linejoin:round"></path><path d="M258.1,104.48a24.61,24.61,0,0,1,3.6,16.57" style="fill:none;stroke:#263238;stroke-linecap:round;stroke-linejoin:round"></path><path d="M314.74,203.58a9.27,9.27,0,0,1-2.68,8.37" style="fill:none;stroke:#515b60;stroke-linecap:round;stroke-linejoin:round"></path><path d="M299.46,172.12c-.11.73-.25,1.46-.41,2.18" style="fill:none;stroke:#515b60;stroke-linecap:round;stroke-linejoin:round"></path><path d="M298.16,156.06a34.34,34.34,0,0,1,1.55,14.08" style="fill:none;stroke:#515b60;stroke-linecap:round;stroke-linejoin:round"></path><path d="M215.33,244.59s-4.78,19.13-4,27.21-.61,32.13,2.42,50.59c4.3,26.16,3.08,51.08,3.55,63.75a36.6,36.6,0,0,1-1.63,12.95c-1,2.93-1.27,7.49,2.25,13.25.06,1,2.27.69,2.57,1.68,0,0,4.08,2.53,6.53,2.77s-.63,2.75,12-4.27c2.82-1.57,4.36-10.63,3.2-14.34-1.79-5.71,1-14.6.35-42.23-.3-12.61-1.13-7.86,2.26-27.27,5.31-30.38,4.21-51.39,4.21-51.39a70,70,0,0,1,.87,7c.41,12.32,3.37,48.67,4,79.54.47,25.29,3.22,55.42,3.22,57.44s-.5,6.41-.5,8.18-.16,5,.65,6.22a21.35,21.35,0,0,1,1.63,3.78s9.78,1.51,12.49,1.51,5.77-2.12,5.77-2.12l.49-2c1.17-4.74,3.24-5.76,3.75-10.6,3.18-30.25,5.24-41.74,5.43-130.77,0-3.51-3.25-48.6-3.25-48.6l-.55-6.06s-28.52,3.54-42.1,1.77-24.73-2.28-24.73-2.28Z" style="fill:#fff;stroke:#263238;stroke-linecap:round;stroke-linejoin:round"></path><path d="M238.85,439.39c0,2.07-4.28,2.93-8.56,3.09a14.38,14.38,0,0,1-7.61-2.06s-3.65.28-4.93-1.18-.62-4.86.18-6,3.89-3.9,5-6c.71-1.36-2.38-6.42-2.71-15.44a5.5,5.5,0,0,1,3-1.49l.57,5.88s10.55-1.74,13.1.31c.34.28.63.31.87.15a19.23,19.23,0,0,0,.16,9.48C240.55,435,238.85,438.54,238.85,439.39Z" style="fill:#757575;stroke:#263238;stroke-linecap:round;stroke-linejoin:round"></path><path d="M237.73,416.64c-.24.16-.53.13-.87-.15-2.55-2.05-13.1-.31-13.1-.31l-.57-5.88a32.49,32.49,0,0,1,10-.59c2.29.24,5,1.64,5.45,2.73C238.8,412.74,238.19,414.34,237.73,416.64Z" style="fill:#263238"></path><path d="M222.7,440.38a14.4,14.4,0,0,0,7.61,2.06c4.28-.16,8.56-1,8.56-3.09v-1.63a20.38,20.38,0,0,1-7,1.47c-5.7.3-8.24-1.32-9.35-1.46-.9-.12-3.36.43-5.45-.45a3.39,3.39,0,0,0,.7,1.91C219,440.66,222.7,440.38,222.7,440.38Z" style="fill:#bfbfbf;stroke:#263238;stroke-linecap:round;stroke-linejoin:round"></path><line x1="222.68" y1="433.3" x2="223.31" y2="440.38" style="fill:none;stroke:#515b60;stroke-linecap:round;stroke-linejoin:round"></line><path d="M257,464.61c0,2.29,4.73,3.25,9.47,3.43a16,16,0,0,0,8.43-2.28s4,.3,5.45-1.31.7-5.39-.19-6.68-4.31-4.31-5.55-6.62c-.77-1.51,2.65-7.11,3-17.1a6.2,6.2,0,0,0-3.29-1.65l-.63,6.52s-11.68-1.93-14.5.34c-.38.31-.7.34-1,.16a21.18,21.18,0,0,1-.17,10.5C255.13,459.8,257,463.67,257,464.61Z" style="fill:#757575;stroke:#263238;stroke-linecap:round;stroke-linejoin:round"></path><path d="M258.25,439.42c.27.18.59.15,1-.16,2.82-2.27,14.5-.34,14.5-.34l.63-6.52a36.1,36.1,0,0,0-11.11-.65c-2.53.27-5.52,1.81-6,3C257.07,435.11,257.75,436.87,258.25,439.42Z" style="fill:#263238"></path><path d="M280.37,464.4a3.9,3.9,0,0,0,.77-2.13c-2.32,1-5,.37-6,.5-1.22.16-4,2-10.35,1.63a22.77,22.77,0,0,1-7.76-1.64v1.8c0,2.28,4.74,3.26,9.48,3.42a15.74,15.74,0,0,0,8.42-2.28S279,466,280.37,464.4Z" style="fill:#bfbfbf;stroke:#263238;stroke-linecap:round;stroke-linejoin:round"></path><line x1="274.22" y1="465.7" x2="274.92" y2="457.87" style="fill:none;stroke:#515b60;stroke-linecap:round;stroke-linejoin:round"></line><path d="M220.51,336.3a43.17,43.17,0,0,0,14.23,22.79" style="fill:none;stroke:#515b60;stroke-linecap:round;stroke-linejoin:round"></path><path d="M219.41,328.07a37.62,37.62,0,0,0,.47,5.08" style="fill:none;stroke:#515b60;stroke-linecap:round;stroke-linejoin:round"></path><path d="M226.06,339.44a15.57,15.57,0,0,0,11.28,5.79" style="fill:none;stroke:#515b60;stroke-linecap:round;stroke-linejoin:round"></path><path d="M259.43,375.35a29.34,29.34,0,0,0,17.39-11.81" style="fill:none;stroke:#515b60;stroke-linecap:round;stroke-linejoin:round"></path><path d="M261.63,365.29a16.6,16.6,0,0,0,10.67-4.91" style="fill:none;stroke:#515b60;stroke-linecap:round;stroke-linejoin:round"></path><polygon points="221.33 191.04 212.77 149.69 224.65 147.32 228.46 190.09 221.33 191.04" style="fill:#263238"></polygon><polygon points="276.6 189.14 285.16 147.79 273.28 145.42 269.48 188.19 276.6 189.14" style="fill:#263238"></polygon><polygon points="240.09 182.96 240.09 207.54 239.99 207.54 236.63 212.96 233.28 207.54 233.17 207.54 233.17 190.05 233.16 190.05 233.16 182.96 240.09 182.96" style="fill:#263238;stroke:#263238;stroke-linecap:round;stroke-linejoin:round"></polygon><rect x="258.15" y="144.94" width="6.93" height="10.13" style="fill:#263238;stroke:#263238;stroke-linecap:round;stroke-linejoin:round"></rect><rect x="258.15" y="160.15" width="6.93" height="17.74" style="fill:#263238;stroke:#263238;stroke-linecap:round;stroke-linejoin:round"></rect><path d="M280.78,165.09l-4.08,12c-1.5,5.69-6,10.17-11.61,13.1v17.32h0V183h3.7v-5.07h-3.7V160.15h3.7v-5.08h-3.7V144.94h-6.93v10.13h-3.7v5.08h3.7v17.74h-3.7V183h3.7v10l-1.13.28-1.06.23a.9.9,0,0,0-.16,0l-.47.09-.68.12-.25,0-.62.1-.7.09H253l-.7.07h-.16l-.69.07h-.08l-.71,0c-.23,0-.46,0-.71,0h-.82a32.68,32.68,0,0,1-9-1.26v14.66h0V183h3.7v-5.07h-3.7V160.15h3.7v-5.08h-3.7V144.94h-6.93v10.13h-3.7v5.08h3.7v17.74h-3.7V183h3.7v7.09c-5.57-3.06-10-7.67-11.49-13.35l-4.22-11.61L229,144.83h40Z" style="fill:#fff;stroke:#263238;stroke-linecap:round;stroke-linejoin:round"></path><polygon points="271.37 212.96 271.37 213.16 227.73 213.16 249.55 224.22 271.37 213.16 271.37 239.94 226.95 239.94 226.95 212.96 271.37 212.96" style="fill:#fff;stroke:#263238;stroke-linecap:round;stroke-linejoin:round"></polygon><path d="M296,268l-21.3-2.55a202.46,202.46,0,0,0-48.52,0L205.29,268l-.58-3a51.09,51.09,0,0,1,.58-21.95h0l32.9,3.12a130,130,0,0,0,24.56,0L296,243.08h0a54.49,54.49,0,0,1,.11,24.47Z" style="fill:#263238"></path><rect x="246.53" y="241.73" width="8.73" height="25.77" style="fill:#fff;stroke:#263238;stroke-linecap:round;stroke-linejoin:round"></rect><path d="M280.78,165.09v74.24c0,4.58-4,8.3-8.91,8.3H226.39c-4.94,0-8.94-3.72-8.94-8.3V165.09l4.22,11.61c1.53,5.68,5.92,10.29,11.49,13.35v17.49h.1l3.36,5.42H227v27h44.42V213h-9.74l3.36-5.42h.1V190.22c5.64-2.93,10.11-7.41,11.61-13.1Z" style="fill:#757575;stroke:#263238;stroke-linecap:round;stroke-linejoin:round"></path><rect x="233.16" y="190.05" width="0.01" height="17.5" style="fill:none;stroke:#515b60;stroke-linecap:round;stroke-linejoin:round"></rect><polygon points="236.63 212.96 233.26 207.54 233.28 207.54 236.63 212.96" style="fill:none;stroke:#515b60;stroke-linecap:round;stroke-linejoin:round"></polygon><path d="M261.61,213h-25l3.36-5.42h.11V192.88a32.68,32.68,0,0,0,9,1.26H250c.25,0,.48,0,.71,0l.71,0h.08l.69-.07h.16l.7-.07h.08l.7-.09.62-.1.25,0,.68-.12.47-.09a.9.9,0,0,1,.16,0l1.06-.23,1.13-.28v14.62h.1Z" style="fill:#757575;stroke:#263238;stroke-linecap:round;stroke-linejoin:round"></path><polygon points="258.16 192.9 258.16 207.54 258.15 207.54 258.15 192.92 258.16 192.9" style="fill:none;stroke:#515b60;stroke-linecap:round;stroke-linejoin:round"></polygon><polygon points="261.61 212.96 258.25 207.54 258.26 207.54 261.61 212.96" style="fill:none;stroke:#515b60;stroke-linecap:round;stroke-linejoin:round"></polygon><path d="M271.37,213.16l-12.07,8.27a17.25,17.25,0,0,1-19.5,0l-12.07-8.27Z" style="fill:#fff;stroke:#263238;stroke-linecap:round;stroke-linejoin:round"></path><path d="M293.94,222.59v17.35H280.78V213h2.8C289.3,213,293.94,217.27,293.94,222.59Z" style="fill:#fff;stroke:#263238;stroke-linecap:round;stroke-linejoin:round"></path><path d="M217.45,213v27H204.3V222.59c0-5.32,4.64-9.63,10.35-9.63Z" style="fill:#fff;stroke:#263238;stroke-linecap:round;stroke-linejoin:round"></path><rect x="233.16" y="160.15" width="6.93" height="17.74" style="fill:#263238;stroke:#263238;stroke-linecap:round;stroke-linejoin:round"></rect><rect x="233.16" y="190.05" width="0.01" height="17.5" style="fill:none;stroke:#515b60;stroke-linecap:round;stroke-linejoin:round"></rect><polygon points="236.63 212.96 233.26 207.54 233.28 207.54 236.63 212.96" style="fill:none;stroke:#515b60;stroke-linecap:round;stroke-linejoin:round"></polygon><rect x="233.16" y="144.94" width="6.93" height="10.13" style="fill:#263238;stroke:#263238;stroke-linecap:round;stroke-linejoin:round"></rect><polygon points="265.08 182.96 265.08 207.54 264.98 207.54 261.61 212.96 258.26 207.54 258.16 207.54 258.16 192.9 258.15 192.92 258.15 182.96 265.08 182.96" style="fill:#263238;stroke:#263238;stroke-linecap:round;stroke-linejoin:round"></polygon><polygon points="258.16 192.9 258.16 207.54 258.15 207.54 258.15 192.92 258.16 192.9" style="fill:none;stroke:#515b60;stroke-linecap:round;stroke-linejoin:round"></polygon><polygon points="261.61 212.96 258.25 207.54 258.26 207.54 261.61 212.96" style="fill:none;stroke:#515b60;stroke-linecap:round;stroke-linejoin:round"></polygon><rect x="229.46" y="155.07" width="14.33" height="5.08" fill="#23a463" style="stroke:#263238;stroke-linecap:round;stroke-linejoin:round"></rect><rect x="254.45" y="155.07" width="14.33" height="5.08" fill="#23a463" style="stroke:#263238;stroke-linecap:round;stroke-linejoin:round"></rect><rect x="229.46" y="177.89" width="14.33" height="5.08" fill="#23a463" style="stroke:#263238;stroke-linecap:round;stroke-linejoin:round"></rect><rect x="254.45" y="177.89" width="14.33" height="5.08" fill="#23a463" style="stroke:#263238;stroke-linecap:round;stroke-linejoin:round"></rect><path d="M249.11,281.14A25.66,25.66,0,0,0,274,284.72" style="fill:none;stroke:#515b60;stroke-linecap:round;stroke-linejoin:round"></path><path d="M249.83,285.79A76.2,76.2,0,0,1,233,311.56" style="fill:none;stroke:#515b60;stroke-linecap:round;stroke-linejoin:round"></path><path d="M249.18,279.14l-1,3.57c-1.38,5.09-2.39,9.08-4.69,13.83l-4.27,8.08,10.1-16.21Z" style="fill:#263238;stroke:#263238;stroke-linecap:round;stroke-linejoin:round"></path><path d="M249.11,281.14l2,20.39,1-3.82c.7-4.73,4-8.44,7.68-11.5h0a24.07,24.07,0,0,1-8.19-3.45C251,282.31,250.12,281.78,249.11,281.14Z" style="fill:#263238;stroke:#263238;stroke-linecap:round;stroke-linejoin:round"></path><path d="M212,267.05c.43,8,4.45,13.17,9.83,15.24" style="fill:none;stroke:#515b60;stroke-linecap:round;stroke-linejoin:round"></path><path d="M284.58,266.81c-.29,8-3,13.17-6.65,15.24" style="fill:none;stroke:#515b60;stroke-linecap:round;stroke-linejoin:round"></path><path d="M207,204.91a47.9,47.9,0,0,1,3.49,8.94" style="fill:none;stroke:#515b60;stroke-linecap:round;stroke-linejoin:round"></path><path d="M203.8,199.59c.44.65.86,1.3,1.27,2" style="fill:none;stroke:#515b60;stroke-linecap:round;stroke-linejoin:round"></path><path d="M194.31,216.7A24.88,24.88,0,0,0,197.58,230" style="fill:none;stroke:#515b60;stroke-linecap:round;stroke-linejoin:round"></path><path d="M283.46,170.74l3.81,12.83" style="fill:none;stroke:#515b60;stroke-linecap:round;stroke-linejoin:round"></path></g></svg>		
								