
									<svg xmlns="http://www.w3.org/2000/svg" viewBox="0 0 500 500"><g id="Floor--inject-1"><path id="floor--inject-1" d="M99.57,429.52c82.55,43.13,216.4,43.13,299,0s82.56-113,0-156.18-216.41-43.13-299,0S17,386.39,99.57,429.52Z" style="fill:#f5f5f5"></path></g><g id="Shadows--inject-1"><ellipse id="Shadow--inject-1" cx="257.17" cy="297.72" rx="63.41" ry="36.61" style="fill:#e0e0e0"></ellipse><ellipse id="shadow--inject-1" cx="376.17" cy="382.72" rx="31.83" ry="18.38" style="fill:#e0e0e0"></ellipse><ellipse id="shadow--inject-1" cx="175.93" cy="325.62" rx="63.41" ry="36.61" style="fill:#e0e0e0"></ellipse></g><g id="Characters--inject-1"><path d="M154.91,148.13c-2.47,0-4.68,2.22-4.68,8.62s-.5,11.52,3.42,11.52Z" fill="#23a463"></path><path d="M154.91,148.13c-2.47,0-4.68,2.22-4.68,8.62s-.5,11.52,3.42,11.52Z" style="opacity:0.1"></path><path d="M161.44,195.52l20.92-1.44a9.69,9.69,0,0,0,7.79-9.16V147.57c0-4.31-2.58-6.56-7.79-6.42l-20.92,1.44a9.69,9.69,0,0,0-7.79,9.16v37.36A6.35,6.35,0,0,0,161.44,195.52Z" fill="#23a463"></path><path d="M208.5,180.18c2.21,5.28,9.19,13.27,10.91,15.23,1.27,1.45,4.33,4.24,5.31,5.89,1.52,2.54,8.66,8.6,6.64,10.73-3.63,3.82-8.69,0-10.63-1.57a102.34,102.34,0,0,1-8.1-7.48,115.73,115.73,0,0,1-12-14.55c-1.51-2.16-9.86-22.84-10.08-27.88-.08-1.91-.37-14.1,2.09-15,4.93.34,7,2.37,8,5s1.46,5.81,2.16,8.47C204.28,164.68,207.7,178.3,208.5,180.18Z" style="fill:#b16668"></path><path d="M138.29,296.52c-1.53-.79-2.51,1.16-3.9,2.72-1,1.1-2.49,2.83-2.72,4.08-.33,1.85,1.33,4.75,3.18,6.36s4,2.75,4.65,6.26,2,5.61,5.68,7.18c4,1.72,9.34,1.17,11.15,0,2.15-1.39.19-2.91-2.82-7.22-3.93-5.62-7-9.64-7-14.88Z" style="fill:#263238"></path><path d="M141.43,291.92l-3.23,4.73a4.55,4.55,0,0,0,1.09,6.3l.1.06a4.87,4.87,0,0,0,6.18-1l5-5.49Z" style="fill:#b16668"></path><rect x="190.95" y="315.36" width="8.18" height="11.92" transform="translate(456.46 591.42) rotate(167.19)" style="fill:#b16668"></rect><path d="M199.45,322.29l-.26-1.14c.84.16,4.43,6.11,8,8.69,3.89,2.83,7.27,4.51,9,5.78,2.33,1.71-1,5.2-6.77,5.52-2.84.15-8-.71-9.61-2.23s-2.75-4-4-5.1-3.82-2.05-4.69-3.44c-.48-.77-.55-2.66-.5-4.29s.1-3.14.61-3.12l.2.87a9.89,9.89,0,0,0,4.85,1.07C197.61,324.84,200.12,324.53,199.45,322.29Z" style="fill:#263238"></path><path d="M199.43,199.25c.21,6,1.27,30.91-3.13,42.44a107.69,107.69,0,0,1-9.15,18.82c-1.31,2.24-39.06,39-39.06,39s-6.4-.47-7.42-6.68c0,0,15.47-26.3,18.81-31.69s15.22-13.66,15.22-13.66L173.62,194Z" fill="#23a463"></path><path d="M199.43,199.25c.21,6,1.27,30.91-3.13,42.44a107.69,107.69,0,0,1-9.15,18.82c-1.31,2.24-39.06,39-39.06,39s-6.4-.47-7.42-6.68c0,0,15.47-26.3,18.81-31.69s15.22-13.66,15.22-13.66L173.62,194Z" style="opacity:0.30000000000000004"></path><path d="M186.13,217.65a50.78,50.78,0,0,0,7.3-8.4c6.1-8.43,5.16-15.92,5.16-15.92h-2.5l-33,.68c-3.27,5.36-4,13.5-2.88,21.42,2.29,16.44,15.92,47.81,15.92,47.81-.2,2.25-1.15,11.71,1,20.09,3.38,13.22,12.61,35.59,12.61,35.59s5.77.82,8.64-2.52c0,0-5.1-45.42-6.48-57.06C190.4,246.74,186.13,217.65,186.13,217.65Z" fill="#23a463"></path><path d="M186.13,217.65a50.78,50.78,0,0,0,7.3-8.4c6.1-8.43,5.16-15.92,5.16-15.92h-2.5l-33,.68c-3.27,5.36-4,13.5-2.88,21.42,2.29,16.44,15.92,47.81,15.92,47.81-.2,2.25-1.15,11.71,1,20.09,3.38,13.22,12.61,35.59,12.61,35.59s5.77.82,8.64-2.52c0,0-5.1-45.42-6.48-57.06C190.4,246.74,186.13,217.65,186.13,217.65Z" style="opacity:0.30000000000000004"></path><path d="M190.88,251.63s-3.84-30.24-4.75-34c0,0,6.78-2.58,8.87-5,0,0-1.49,3.31-6.34,6.26Z" style="opacity:0.30000000000000004"></path><path d="M174.58,264c-1.06,3.94-1,10.44-1,10.44l2.14-1.86c-.06-1.57.36-9.32.36-9.32-1.65-2.25-5.27-12.93-5.27-12.93Z" style="opacity:0.30000000000000004"></path><path d="M197.58,174.79c.52,4.78,1.85,24.46,1.85,24.46-15.79,8.43-35.37,2.85-38.37-.63a33.54,33.54,0,0,1,8.86-15.09l-5.11-14.27s-.61-1.46-.6-1.48c.34-.58,7.48-8.63.7-21.41l9.22-.84,13.49-.39c2.94.17,5,.45,5,.45,1.89,1.76,4.86,6.61,6.78,11.53C200.67,160.3,202,165.38,197.58,174.79Z" style="fill:#37474f"></path><polygon points="166.87 175.01 175.75 186.41 169.93 183.53 166.87 175.01" style="fill:#263238"></polygon><path d="M148.46,212.14a87.47,87.47,0,0,0,1.42,10.69c2.37,9.13,5.4,11.87,9.45,12.14,6.45.43,6.49-2,3.59-6.14a20.89,20.89,0,0,1-2.88-5.94,15.9,15.9,0,0,0,3.1,2,2.23,2.23,0,0,0,2.91-.79c.21-.44-.91-.87-2.14-2.38-1.58-1.93-2.39-3.46-4.56-5.06A4.5,4.5,0,0,1,158,214c-.33-1.3-.55-22,.62-26.3l5.55-19.92c4.51-3.1,7.57-18.15.7-21.41-8.7.95-9.38,8.87-16.4,34.89C147.26,185.87,147.73,205.06,148.46,212.14Z" style="fill:#b16668"></path><path d="M168.67,146s2.19,1.19,2.64,7.53c.59,8.13-3.28,17.86-7.49,21.45v7.16s8.14-6.77,10.89-15.28,2.95-16.82-.58-21.36A8.63,8.63,0,0,0,168.67,146Z" fill="#23a463"></path><path d="M168.67,146s2.19,1.19,2.64,7.53c.59,8.13-3.28,17.86-7.49,21.45v7.16s8.14-6.77,10.89-15.28,2.95-16.82-.58-21.36A8.63,8.63,0,0,0,168.67,146Z" style="opacity:0.2"></path><path d="M187.57,145.1s7.57,2.77,10.53,9c0,0,.27-4.92-3.53-7.68S187.57,145.1,187.57,145.1Z" fill="#23a463"></path><path d="M187.57,145.1s7.57,2.77,10.53,9c0,0,.27-4.92-3.53-7.68S187.57,145.1,187.57,145.1Z" style="opacity:0.2"></path><path d="M202,143.61H185.28a22.12,22.12,0,0,1-22.12-22.12h0a19.43,19.43,0,0,1,19.43-19.43h0A19.43,19.43,0,0,1,202,121.49Z" style="fill:#263238"></path><path d="M195.08,110.53c2,1.21,4.59,6.37,4.34,17.19-.22,9.17-3.19,11.44-4.68,12.09s-4.37.25-7.17-.21v5.5s3.87,4.49,3.62,7-5.58,3.12-9.2.65-6.67-7.27-6.67-7.27l.07-12.65s-1.65,1.6-4.44-.85c-2.31-2-3.09-5.41-1.29-7.23a4,4,0,0,1,6.39,1.27s4.46.16,10.41-3.1A16.74,16.74,0,0,0,195.08,110.53Z" style="fill:#b16668"></path><path d="M189.18,125.42a1.16,1.16,0,1,1-1.21-1.15A1.19,1.19,0,0,1,189.18,125.42Z" style="fill:#263238"></path><g style="opacity:0.5;mix-blend-mode:multiply"><path d="M189.49,133.19l2.67.85a1.37,1.37,0,0,1-1.74,1A1.45,1.45,0,0,1,189.49,133.19Z" style="fill:#9a4a4d"></path></g><path d="M198.63,121.88l-2.33-1.62a1.36,1.36,0,0,1,1.94-.4A1.5,1.5,0,0,1,198.63,121.88Z" style="fill:#263238"></path><path d="M198.1,124.58a1.16,1.16,0,1,1-1.22-1.14A1.18,1.18,0,0,1,198.1,124.58Z" style="fill:#263238"></path><g style="opacity:0.5;mix-blend-mode:multiply"><polygon points="192.66 123.92 192.84 130.86 196.49 129.73 192.66 123.92" style="fill:#9a4a4d"></polygon></g><g style="opacity:0.5;mix-blend-mode:multiply"><path d="M187.57,139.6c-2.95-.39-9-2.13-10-4.53a6.15,6.15,0,0,0,2.13,3.06c1.81,1.55,7.83,3.3,7.83,3.3Z" style="fill:#9a4a4d"></path></g><path d="M166.25,111.82l-4.51-2.42a2.48,2.48,0,0,1,3.41-1.12A2.67,2.67,0,0,1,166.25,111.82Z" style="fill:#263238"></path><path d="M234.74,123.92c-2.93,0-5.56,2.64-5.56,10.23s-.6,13.7,4.06,13.7Z" style="fill:#455a64"></path><path d="M242.5,180.22l24.86-3.56a11.52,11.52,0,0,0,9.25-10.89V121.39c0-5.11-4.14-8.52-9.25-7.62l-24.86,3.57a11.51,11.51,0,0,0-9.26,10.88V172.6C233.24,177.71,237.38,181.12,242.5,180.22Z" style="fill:#37474f"></path><path d="M221,277.69c-1.53-.79-2.51,1.16-3.9,2.72-1,1.1-2.49,2.83-2.72,4.08-.33,1.85,1.34,4.75,3.18,6.36s4,2.75,4.65,6.26,2,5.61,5.68,7.18c4,1.72,9.34,1.17,11.15,0,2.15-1.39.19-2.91-2.82-7.22-3.93-5.62-7-9.64-7-14.88Z" style="fill:#263238"></path><path d="M224.16,273.09l-3.22,4.73a4.53,4.53,0,0,0,1.09,6.3l.1.06a4.87,4.87,0,0,0,6.17-1l5-5.49Z" style="fill:#f28f8f"></path><rect x="273.68" y="296.53" width="8.18" height="11.92" transform="translate(615.69 535.88) rotate(167.19)" style="fill:#f28f8f"></rect><path d="M282.18,303.46l-.25-1.14c.83.16,4.42,6.11,8,8.69,3.89,2.83,7.27,4.5,9,5.78,2.33,1.71-1,5.2-6.77,5.51-2.84.16-8-.71-9.61-2.22s-2.75-4-4-5.11-3.82-2-4.69-3.43c-.48-.77-.55-2.66-.5-4.29s.1-3.14.61-3.12c.05.17.2.87.2.87a9.91,9.91,0,0,0,4.86,1.07C280.34,306,282.85,305.7,282.18,303.46Z" style="fill:#263238"></path><path d="M285.84,176.41c.2,6-2.41,34.92-6.81,46.45a107.69,107.69,0,0,1-9.15,18.82c-1.31,2.24-39.06,39-39.06,39s-7.42.67-7.42-6.68c0,0,15.6-25.4,18.95-30.8s13.21-16.28,13.21-16.28L257.35,176Z" style="fill:#37474f"></path><path d="M269.86,199.6a50.78,50.78,0,0,0,7.3-8.4c6.1-8.43,6.09-15.62,6.09-15.62l-3.43-.3-36.18,2.39c0,6.14-.4,11.74.29,19.71,1.43,16.34,12.64,47.55,12.64,47.55-.19,2.25,1.13,11.18,3.28,19.56,3.38,13.23,12.61,35.6,12.61,35.6s5.78.82,8.65-2.52c0,0-5.11-45.42-6.49-57.06C273.13,227.91,269.86,199.6,269.86,199.6Z" style="fill:#37474f"></path><path d="M273.61,232.8s-2.84-29.46-3.75-33.2c0,0,6.78-2.58,8.87-4.95,0,0-1.49,3.31-6.34,6.26Z" style="fill:#263238"></path><path d="M251.94,231l4.63,13.91a91.71,91.71,0,0,0,1.08,9.37l-2,2a46,46,0,0,1-.45-11Z" style="fill:#263238"></path><path d="M283.1,164.88c-7-17.33-7.27-32.51-8.7-37l15.45,17.91a169.88,169.88,0,0,0,4.51,18.54c2.2,6.66,5.13,15,8.2,20a4.3,4.3,0,0,0,2.42,1.84c2.68.82,4,2.05,6.22,3.4,1.73,1.05,3,1.09,2.92,1.59a2.31,2.31,0,0,1-2.58,1.78,16,16,0,0,1-3.74-.89,21.55,21.55,0,0,0,4.88,4.84c4.28,3.08,5.07,5.47-1.42,7.27-4.06,1.13-8-.51-13.46-8.67a75,75,0,0,1-5.57-9.31C288.29,177.67,285.21,170.12,283.1,164.88Z" style="fill:#ffa8a7"></path><path d="M272,117.43c6.45.07,12.79,1.52,15,8.38,2.13,6.71,4.88,26.15,4.88,26.15s-2.71,3.6-11.75,3Z" fill="#23a463"></path><path d="M272,117.43c6.45.07,12.79,1.52,15,8.38,2.13,6.71,4.88,26.15,4.88,26.15s-2.71,3.6-11.75,3Z" style="opacity:0.1"></path><path d="M286,132.73c0-6.68-3.71-14.7-13.95-15.3l-13.24.39c-3.28.79-6.92,1.47-10.34,2.6l-2.49,28.31-2.58,31.76c6,6.54,29.69,7.65,42.82-1.94C286.17,178.55,286,139.41,286,132.73Z" fill="#23a463"></path><path d="M250.52,119.79s3.69,2.34,4.1,11.53a26.05,26.05,0,0,1-9,21.18l-.58,7.25s13-5.4,15.8-22.89c1.81-11.48-3-18.83-3-18.83C255.71,116.89,250.41,119,250.52,119.79Z" style="fill:#455a64"></path><path d="M284.47,125.6s-4.27-6.89-12.21-8.17a9.34,9.34,0,0,1,6.16.55A10.58,10.58,0,0,1,284.47,125.6Z" style="fill:#455a64"></path><path d="M251.61,94.58l2.84,11.22a5.42,5.42,0,0,0,5.25,4.09H263V94.24Z" style="fill:#263238"></path><circle cx="274.44" cy="90.47" r="12.02" transform="translate(123.33 336.78) rotate(-76.72)" style="fill:#263238"></circle><path d="M255.87,83.64A4.54,4.54,0,0,0,252.09,85c-1.63,1.66-1.29,4.73,0,11.8l5,.57Z" style="fill:#263238"></path><path d="M258.22,97.35c-.74.44-1.8-1-2.72-1.95s-3.92-2.28-5.42.88.86,7.45,3.15,8.39a3.5,3.5,0,0,0,4.63-1.47l.9,14.62a13.09,13.09,0,0,0,9.88,7.5c7.21,1,5.73-5,3.36-7.89V113a22.54,22.54,0,0,0,5.48.28c2.64-.49,3.93-2.94,5.17-6.07,1.85-4.66,3-11.26,1.39-19.63-2.12-11.1-14.4-11.34-21.45-6.9S258.22,97.35,258.22,97.35Z" style="fill:#ffa8a7"></path><path d="M258.22,98.6c-.37,0-1.8-2.36-2.72-3.2-1.29-1.17.37-11.76.37-11.76.65-8.68,13.45-9.34,17-9.59,8.11-.58,13.63,3.9,11.42,9.56-1.47,2.56-4.46,3.27-7.27,3.61-4.77.58-12.89-2-13.91-2.12-1.38-.18-1.67,1.16-2.42,4.82C260,93.13,259.48,98.57,258.22,98.6Z" style="fill:#263238"></path><path d="M255.88,84.46,251.37,82a2.48,2.48,0,0,1,3.41-1.12A2.67,2.67,0,0,1,255.88,84.46Z" style="fill:#263238"></path><path d="M272,113s-6.69-1.35-9-2.59a7.64,7.64,0,0,1-3.23-3.2,10.56,10.56,0,0,0,1.83,3.77c1.71,2.19,10.42,3.79,10.42,3.79Z" style="fill:#f28f8f"></path><path d="M272.2,97.1a1.34,1.34,0,1,1-1.34-1.39A1.36,1.36,0,0,1,272.2,97.1Z" style="fill:#263238"></path><path d="M270.78,92.05l-2.87,1.58a1.72,1.72,0,0,1,.67-2.28A1.59,1.59,0,0,1,270.78,92.05Z" style="fill:#263238"></path><path d="M271.38,106.05l3.06,1.15a1.61,1.61,0,0,1-2.08,1A1.71,1.71,0,0,1,271.38,106.05Z" style="fill:#f28f8f"></path><path d="M283.44,93.16l-2.61-2a1.58,1.58,0,0,1,2.27-.35A1.74,1.74,0,0,1,283.44,93.16Z" style="fill:#263238"></path><path d="M282.64,96.33a1.36,1.36,0,0,1-1.34,1.39,1.38,1.38,0,0,1-1.34-1.4,1.36,1.36,0,0,1,1.34-1.39A1.38,1.38,0,0,1,282.64,96.33Z" style="fill:#263238"></path><polygon points="277.02 96.56 275.76 104.52 280.18 104 277.02 96.56" style="fill:#f28f8f"></polygon><path d="M244.11,149.73s-6.22,14.83-9.39,24.8c-2,6.38-4.83,14.57-4.45,20.18a4.07,4.07,0,0,0,1.24,2.67c1.91,1.87,2.48,3.49,3.77,5.6,1,1.65,2,2.24,1.78,2.64a2.22,2.22,0,0,1-3,.37,15.73,15.73,0,0,1-2.77-2.4,20,20,0,0,0,2,6.24c2.26,4.51-.92,5.91-4.41,5.55-4-.43-6.1-3.67-7.14-13a57.63,57.63,0,0,1,.14-10.85c1.16-10.19,1.83-17.92,3.08-23.16,3.07-12.86,6.95-26.1,10.64-34.93,1.84-4.39,5.74-9.43,9.61-10C252.5,136.79,244.11,149.73,244.11,149.73Z" style="fill:#ffa8a7"></path><path d="M248.42,120.42c-4.61,1.52-8.83,3.86-11.22,8.35-4.7,8.84-9.47,26.6-9.47,26.6,2.4,2.81,10.42,5.28,14.44,4.07l3.76-10.71,3.67-7.3S256.8,125.71,248.42,120.42Z" fill="#23a463"></path><path d="M248.42,120.42c-4.61,1.52-8.83,3.86-11.22,8.35-4.7,8.84-9.47,26.6-9.47,26.6,2.4,2.81,10.42,5.28,14.44,4.07l3.76-10.71,3.67-7.3S256.8,125.71,248.42,120.42Z" style="opacity:0.1"></path><path d="M231.31,203.59c-1.66-.43-3.29-1.44-3.95.26a7.62,7.62,0,0,0,1.39,6.66c1.49,1.55,5.64,2.67,6.63,1.8S234.28,204.36,231.31,203.59Z" style="fill:#b16668"></path></g><g id="Locator--inject-1"><path d="M407.36,252.17l-14.84-8.52h0c-7.08-4.74-16.91-4.54-27.79,1.74-21.57,12.45-39.06,44.07-39.06,70.63v6c0,26.55,35.7,55.4,35.7,55.4l14.6,8.26s-8.77-10-7.77-12.05c9.56-19.62,35.59-75,35.59-96.71v-6a47.34,47.34,0,0,0-1.67-13l1.67,1ZM364.73,313c-10.78,6.23-19.53,1.18-19.53-11.28,5.81-.91,20.41-25.83,19.53-33.82,10.79-6.23,19.53-1.18,19.53,11.28S375.52,306.81,364.73,313Z" fill="#23a463"></path><g style="opacity:0.2"><path d="M407.36,252.17l-14.84-8.52h0c-7.08-4.74-16.91-4.54-27.79,1.74-21.57,12.45-39.06,44.07-39.06,70.63v6c0,26.55,35.7,55.4,35.7,55.4l14.6,8.26s-8.77-10-7.77-12.05c9.56-19.62,35.59-75,35.59-96.71v-6a47.34,47.34,0,0,0-1.67-13l1.67,1ZM364.73,313c-10.78,6.23-19.53,1.18-19.53-11.28,5.81-.91,20.41-25.83,19.53-33.82,10.79-6.23,19.53-1.18,19.53,11.28S375.52,306.81,364.73,313Z"></path></g><path d="M419.41,279.94c0-26.55-17.49-38-39.06-25.53S341.3,298.48,341.3,325v6c0,20.45,23.16,44.17,33.81,54a5.26,5.26,0,0,0,8.3-1.55c9.2-18.83,36-75.56,36-97.55Zm-39.06,42.12c-10.78,6.23-19.53,1.18-19.53-11.28s8.75-27.59,19.53-33.82,19.53-1.18,19.53,11.27S391.14,315.83,380.35,322.06Z" fill="#23a463"></path></g><g id="Planes--inject-1"><path d="M80.49,129.23a.75.75,0,0,1-.48-1.32c.78-.66,1.58-1.3,2.38-1.89a.75.75,0,0,1,.9,1.2c-.78.58-1.55,1.19-2.32,1.83A.74.74,0,0,1,80.49,129.23Z" style="fill:#e0e0e0"></path><path d="M111,214.82c-1,0-2,0-3-.07a.75.75,0,0,1-.71-.78.76.76,0,0,1,.78-.72c2,.1,4.11.09,6.08,0a.75.75,0,1,1,.08,1.5C113.2,214.79,112.11,214.82,111,214.82Zm-8.07-.5h-.1c-2.06-.25-4.12-.61-6.14-1.05a.74.74,0,0,1-.57-.89.75.75,0,0,1,.89-.57c2,.43,4,.77,6,1a.75.75,0,0,1-.09,1.5Zm16.37-.09a.74.74,0,0,1-.74-.64.75.75,0,0,1,.63-.85,41,41,0,0,0,5.9-1.3.75.75,0,1,1,.44,1.43,41.7,41.7,0,0,1-6.12,1.35ZM91.91,212a.57.57,0,0,1-.22,0,43.47,43.47,0,0,1-5.81-2.33.75.75,0,1,1,.66-1.35,41.82,41.82,0,0,0,5.61,2.25.75.75,0,0,1-.24,1.47Zm-10.16-4.83a.75.75,0,0,1-.41-.12,40.9,40.9,0,0,1-5-3.81.75.75,0,0,1,1-1.12,40.71,40.71,0,0,0,4.8,3.68.75.75,0,0,1,.22,1A.77.77,0,0,1,81.75,207.14Zm-8.49-7.38a.76.76,0,0,1-.57-.26,43.21,43.21,0,0,1-3.77-5,.74.74,0,0,1,.22-1,.76.76,0,0,1,1,.21,42.38,42.38,0,0,0,3.64,4.83.74.74,0,0,1-.07,1A.72.72,0,0,1,73.26,199.76ZM67,190.41a.76.76,0,0,1-.68-.42,50.61,50.61,0,0,1-2.44-5.75.75.75,0,0,1,.46-1,.76.76,0,0,1,1,.46,47.63,47.63,0,0,0,2.36,5.58.75.75,0,0,1-.33,1A.8.8,0,0,1,67,190.41Zm-3.87-10.59a.75.75,0,0,1-.73-.57,52.62,52.62,0,0,1-1.11-6.14.75.75,0,1,1,1.49-.18,51.81,51.81,0,0,0,1.08,6,.75.75,0,0,1-.55.9A.55.55,0,0,1,63.13,179.82Zm-1.47-11.17a.76.76,0,0,1-.75-.74c0-.32,0-.65,0-1a46,46,0,0,1,.3-5.26.75.75,0,1,1,1.49.17,45.3,45.3,0,0,0-.29,5.09c0,.32,0,.64,0,.95a.75.75,0,0,1-.73.77Zm1.14-11.21h-.16a.76.76,0,0,1-.57-.9,47.77,47.77,0,0,1,1.79-6,.75.75,0,0,1,1-.45.76.76,0,0,1,.45,1,44.77,44.77,0,0,0-1.73,5.8A.75.75,0,0,1,62.8,157.44Zm3.8-10.6a.81.81,0,0,1-.34-.08.76.76,0,0,1-.34-1,56.38,56.38,0,0,1,3.1-5.42.75.75,0,0,1,1.26.82,51.33,51.33,0,0,0-3,5.27A.76.76,0,0,1,66.6,146.84Zm6.05-9.51a.76.76,0,0,1-.59-1.22,55.36,55.36,0,0,1,4.13-4.67.75.75,0,1,1,1.07,1.05,58,58,0,0,0-4,4.55A.72.72,0,0,1,72.65,137.33Z" style="fill:#e0e0e0"></path><path d="M130.15,211a.77.77,0,0,1-.67-.4.75.75,0,0,1,.33-1,20.73,20.73,0,0,0,2.47-1.5.75.75,0,0,1,.87,1.22,20.61,20.61,0,0,1-2.66,1.61A.68.68,0,0,1,130.15,211Z" style="fill:#e0e0e0"></path><path d="M111.93,105.49,87.86,94.12l1.06-.56,22.94,4.57,2.29-1.22a1.7,1.7,0,0,1,1.52.07c.42.26.41.65,0,.88l-1.41.74,7.91,1.65Z" fill="#23a463"></path><path d="M111.93,105.49,87.86,94.12l1.06-.56,22.94,4.57,2.29-1.22a1.7,1.7,0,0,1,1.52.07c.42.26.41.65,0,.88l-1.41.74,7.91,1.65Z" style="opacity:0.1"></path><path d="M118.67,99.48c10.84-5.69,19.62-8.91,22.27-7.25s-3.7,6.43-14.5,12.15L116.89,109c-9.57,4.3-19.4,8-19.4,8l.44,6.62-1,.5-4.3-4.76s-2.4,1.14-3.74.3.86-2.12.86-2.12l-7.86-2.89,1-.5,11.4.84s7.27-5.32,15.54-10.43Z" fill="#23a463"></path><path d="M130.48,107.2l-2.3,1.21L134,122l-1.06.56L116.89,109l9.55-4.62,1.14,2.62,1.41-.74a1.67,1.67,0,0,1,1.52.06A.47.47,0,0,1,130.48,107.2Z" fill="#23a463"></path><path d="M130.48,107.2l-2.3,1.21L134,122l-1.06.56L114.8,107.28l10.54-5.38,2.24,5.1,1.41-.74a1.67,1.67,0,0,1,1.52.06A.47.47,0,0,1,130.48,107.2Z" style="opacity:0.1"></path><path d="M369.38,181.49c-10.54,6.25-19.14,9.93-21.87,8.4s3.36-6.61,13.84-12.89l9.3-5.11c9.33-4.79,19-9,19-9l-.79-6.58.93-.55,4.54,4.53s2.33-1.27,3.72-.49-.75,2.16-.75,2.16l8,2.47-.92.56-11.43-.25s-7,5.69-15,11.23Z" fill="#23a463"></path><path d="M357.17,174.4l2.23-1.33-6.55-13.25,1-.61,16.78,12.68-9.3,5.11-1.26-2.55-1.38.81a1.64,1.64,0,0,1-1.51,0C356.77,175,356.76,174.65,357.17,174.4Z" fill="#23a463"></path><path d="M357.17,174.4l2.23-1.33-6.55-13.25,1-.61,16.78,12.68-9.3,5.11-1.26-2.55-1.38.81a1.64,1.64,0,0,1-1.51,0C356.77,175,356.76,174.65,357.17,174.4Z" style="opacity:0.1"></path><path d="M375.79,175.14l24.63,10.09-1,.62-23.14-3.36L374,183.82a1.69,1.69,0,0,1-1.52,0c-.43-.24-.44-.63,0-.87l1.37-.82-8-1.24Z" fill="#23a463"></path><path d="M375.79,175.14l24.63,10.09-1,.62-23.14-3.36L374,183.82a1.69,1.69,0,0,1-1.52,0c-.43-.24-.44-.63,0-.87l1.37-.82-8-1.24Z" style="opacity:0.1"></path><path d="M403.61,153.17a.75.75,0,0,1-.5-.19.76.76,0,0,1-.06-1.06,30.92,30.92,0,0,0,3.45-4.71.75.75,0,1,1,1.29.76,31.08,31.08,0,0,1-3.62,4.95A.73.73,0,0,1,403.61,153.17Zm5.72-9.32a.86.86,0,0,1-.27,0,.74.74,0,0,1-.42-1,30.36,30.36,0,0,0,1.58-5.63.75.75,0,0,1,1.48.27,32.32,32.32,0,0,1-1.67,5.9A.74.74,0,0,1,409.33,143.85Zm2.14-10.74h0a.74.74,0,0,1-.73-.77c0-.25,0-.51,0-.77a33.51,33.51,0,0,0-.4-5.07.76.76,0,0,1,.63-.86.75.75,0,0,1,.85.63,33.9,33.9,0,0,1,.42,5.3c0,.27,0,.54,0,.81A.75.75,0,0,1,411.47,133.11ZM410,122.26a.75.75,0,0,1-.72-.53,37.78,37.78,0,0,0-2.14-5.47.75.75,0,0,1,.34-1,.76.76,0,0,1,1,.35,40.41,40.41,0,0,1,2.23,5.69.74.74,0,0,1-.5.93A.83.83,0,0,1,410,122.26Zm-4.64-9.93a.74.74,0,0,1-.63-.34,42.6,42.6,0,0,0-3.54-4.71.76.76,0,0,1,.08-1.06.75.75,0,0,1,1.06.08,44.67,44.67,0,0,1,3.66,4.88.75.75,0,0,1-.23,1A.72.72,0,0,1,405.32,112.33Zm-7.05-8.4a.75.75,0,0,1-.52-.21,52.74,52.74,0,0,0-4.52-3.8.75.75,0,1,1,.9-1.2,54,54,0,0,1,4.65,3.91.75.75,0,0,1,0,1.06A.71.71,0,0,1,398.27,103.93Zm-8.72-6.67a.72.72,0,0,1-.4-.12c-.69-.42-1.39-.84-2.11-1.25-1-.57-2-1.12-3.07-1.65a.75.75,0,0,1-.32-1,.76.76,0,0,1,1-.33c1,.54,2.09,1.11,3.12,1.68.73.42,1.46.85,2.16,1.29a.75.75,0,0,1,.24,1A.74.74,0,0,1,389.55,97.26Zm-89.65-.51a.75.75,0,0,1-.38-1.4c1.74-1,3.54-2,5.34-2.84a.75.75,0,0,1,1,.34.76.76,0,0,1-.35,1c-1.77.86-3.54,1.8-5.25,2.79A.74.74,0,0,1,299.9,96.75Zm79.9-4.57a.66.66,0,0,1-.3-.07c-1.81-.79-3.67-1.53-5.52-2.2a.74.74,0,0,1-.46-1,.75.75,0,0,1,1-.46c1.89.68,3.78,1.43,5.62,2.24a.75.75,0,0,1-.3,1.44Zm-70.05-.31a.77.77,0,0,1-.7-.46.75.75,0,0,1,.41-1c1.84-.78,3.75-1.5,5.65-2.15a.75.75,0,0,1,.49,1.41c-1.88.65-3.75,1.36-5.56,2.12A.79.79,0,0,1,309.75,91.87Zm59.73-3.46a.76.76,0,0,1-.21,0c-1.89-.55-3.83-1-5.77-1.47a.75.75,0,0,1,.33-1.47c2,.43,3.94.94,5.86,1.5a.75.75,0,0,1-.21,1.47Zm-49.35-.16a.77.77,0,0,1-.73-.55.74.74,0,0,1,.52-.92c1.93-.55,3.91-1,5.88-1.45a.76.76,0,0,1,.88.58.74.74,0,0,1-.57.89c-1.94.41-3.88.89-5.78,1.42ZM358.76,86h-.12c-1.95-.31-3.94-.56-5.91-.74a.75.75,0,0,1-.67-.82.74.74,0,0,1,.81-.67c2,.18,4,.43,6,.75a.76.76,0,0,1,.63.86A.75.75,0,0,1,358.76,86Zm-27.89-.07a.74.74,0,0,1-.74-.63.75.75,0,0,1,.62-.86c2-.3,4-.55,6-.72a.75.75,0,0,1,.13,1.5c-2,.17-3.95.4-5.91.7Zm16.94-1h0q-3-.11-6,0a.73.73,0,0,1-.77-.72.75.75,0,0,1,.72-.78c2-.06,4-.06,6,0a.75.75,0,0,1,0,1.5Z" style="fill:#e0e0e0"></path></g></svg>		
								